<svg xmlns="http://www.w3.org/2000/svg" xmlns:xlink="http://www.w3.org/1999/xlink" width="500" zoomAndPan="magnify" viewBox="0 0 375 374.999991" height="500" preserveAspectRatio="xMidYMid meet" version="1.0"><defs><g/><clipPath id="510b007d55"><path d="M 288 153 L 317 153 L 317 182 L 288 182 Z M 288 153 " clip-rule="nonzero"/></clipPath><clipPath id="3e7383ec36"><path d="M 291.222656 146.511719 L 325.792969 158.976562 L 314.347656 190.726562 L 279.777344 178.261719 Z M 291.222656 146.511719 " clip-rule="nonzero"/></clipPath><clipPath id="09dce68dbb"><path d="M 291.222656 146.511719 L 325.792969 158.976562 L 314.347656 190.726562 L 279.777344 178.261719 Z M 291.222656 146.511719 " clip-rule="nonzero"/></clipPath><clipPath id="8919010e51"><rect x="0" width="124" y="0" height="19"/></clipPath><clipPath id="7cbed73d0b"><path d="M 58 136 L 85 136 L 85 161 L 58 161 Z M 58 136 " clip-rule="nonzero"/></clipPath><clipPath id="7615c4681d"><path d="M 57.550781 145.691406 L 78.707031 136.050781 L 85.550781 151.0625 L 64.394531 160.707031 Z M 57.550781 145.691406 " clip-rule="nonzero"/></clipPath><clipPath id="f8fdfd7d91"><path d="M 57.550781 145.691406 L 78.707031 136.050781 L 85.550781 151.0625 L 64.394531 160.707031 Z M 57.550781 145.691406 " clip-rule="nonzero"/></clipPath></defs><g fill="#d6c6e1" fill-opacity="1"><g transform="translate(92.51187, 184.979028)"><g><path d="M 28.734375 -55.90625 C 32.140625 -55.90625 34.9375 -55.398438 37.125 -54.390625 C 39.320312 -53.390625 41.273438 -52.21875 42.984375 -50.875 C 44.015625 -50.101562 44.800781 -50.015625 45.34375 -50.609375 C 45.882812 -51.203125 46.257812 -52.609375 46.46875 -54.828125 L 48.25 -54.828125 C 48.144531 -52.910156 48.066406 -50.582031 48.015625 -47.84375 C 47.960938 -45.113281 47.9375 -41.503906 47.9375 -37.015625 L 46.15625 -37.015625 C 45.789062 -39.234375 45.453125 -41 45.140625 -42.3125 C 44.835938 -43.632812 44.460938 -44.757812 44.015625 -45.6875 C 43.578125 -46.613281 43 -47.539062 42.28125 -48.46875 C 40.675781 -50.59375 38.660156 -52.128906 36.234375 -53.078125 C 33.804688 -54.035156 31.253906 -54.515625 28.578125 -54.515625 C 26.046875 -54.515625 23.757812 -53.878906 21.71875 -52.609375 C 19.675781 -51.347656 17.921875 -49.53125 16.453125 -47.15625 C 14.984375 -44.78125 13.847656 -41.914062 13.046875 -38.5625 C 12.242188 -35.207031 11.84375 -31.441406 11.84375 -27.265625 C 11.84375 -22.921875 12.28125 -19.082031 13.15625 -15.75 C 14.039062 -12.425781 15.269531 -9.628906 16.84375 -7.359375 C 18.414062 -5.085938 20.269531 -3.367188 22.40625 -2.203125 C 24.550781 -1.046875 26.863281 -0.46875 29.34375 -0.46875 C 31.664062 -0.46875 34.09375 -0.929688 36.625 -1.859375 C 39.15625 -2.785156 41.144531 -4.28125 42.59375 -6.34375 C 43.726562 -7.84375 44.515625 -9.46875 44.953125 -11.21875 C 45.390625 -12.976562 45.789062 -15.429688 46.15625 -18.578125 L 47.9375 -18.578125 C 47.9375 -13.878906 47.960938 -10.097656 48.015625 -7.234375 C 48.066406 -4.367188 48.144531 -1.957031 48.25 0 L 46.46875 0 C 46.257812 -2.21875 45.910156 -3.609375 45.421875 -4.171875 C 44.929688 -4.742188 44.117188 -4.671875 42.984375 -3.953125 C 41.066406 -2.609375 39.035156 -1.429688 36.890625 -0.421875 C 34.753906 0.578125 32.007812 1.078125 28.65625 1.078125 C 23.75 1.078125 19.445312 -0.03125 15.75 -2.25 C 12.0625 -4.46875 9.195312 -7.664062 7.15625 -11.84375 C 5.125 -16.03125 4.109375 -21.066406 4.109375 -26.953125 C 4.109375 -32.734375 5.164062 -37.789062 7.28125 -42.125 C 9.394531 -46.457031 12.296875 -49.835938 15.984375 -52.265625 C 19.679688 -54.691406 23.929688 -55.90625 28.734375 -55.90625 Z M 28.734375 -55.90625 "/></g></g></g><g fill="#d6c6e1" fill-opacity="1"><g transform="translate(145.788886, 184.979028)"><g><path d="M 14.5625 -60.703125 L 14.5625 -7.203125 C 14.5625 -5.035156 15.007812 -3.5625 15.90625 -2.78125 C 16.8125 -2.007812 18.320312 -1.625 20.4375 -1.625 L 20.4375 0 C 19.5625 -0.0507812 18.234375 -0.113281 16.453125 -0.1875 C 14.671875 -0.269531 12.878906 -0.3125 11.078125 -0.3125 C 9.316406 -0.3125 7.53125 -0.269531 5.71875 -0.1875 C 3.914062 -0.113281 2.578125 -0.0507812 1.703125 0 L 1.703125 -1.625 C 3.816406 -1.625 5.328125 -2.007812 6.234375 -2.78125 C 7.140625 -3.5625 7.59375 -5.035156 7.59375 -7.203125 L 7.59375 -51.421875 C 7.59375 -53.742188 7.175781 -55.457031 6.34375 -56.5625 C 5.519531 -57.675781 3.972656 -58.234375 1.703125 -58.234375 L 1.703125 -59.859375 C 3.359375 -59.703125 4.957031 -59.625 6.5 -59.625 C 8 -59.625 9.429688 -59.710938 10.796875 -59.890625 C 12.171875 -60.078125 13.425781 -60.347656 14.5625 -60.703125 Z M 14.5625 -60.703125 "/></g></g></g><g fill="#d6c6e1" fill-opacity="1"><g transform="translate(167.936017, 184.979028)"><g><path d="M 11.078125 -59.234375 C 12.410156 -59.234375 13.566406 -58.742188 14.546875 -57.765625 C 15.535156 -56.785156 16.03125 -55.625 16.03125 -54.28125 C 16.03125 -52.9375 15.535156 -51.773438 14.546875 -50.796875 C 13.566406 -49.816406 12.410156 -49.328125 11.078125 -49.328125 C 9.734375 -49.328125 8.566406 -49.816406 7.578125 -50.796875 C 6.597656 -51.773438 6.109375 -52.9375 6.109375 -54.28125 C 6.109375 -55.625 6.597656 -56.785156 7.578125 -57.765625 C 8.566406 -58.742188 9.734375 -59.234375 11.078125 -59.234375 Z M 15.09375 -40.734375 L 15.09375 -7.203125 C 15.09375 -5.035156 15.546875 -3.5625 16.453125 -2.78125 C 17.359375 -2.007812 18.867188 -1.625 20.984375 -1.625 L 20.984375 0 C 20.109375 -0.0507812 18.78125 -0.113281 17 -0.1875 C 15.21875 -0.269531 13.421875 -0.3125 11.609375 -0.3125 C 9.859375 -0.3125 8.078125 -0.269531 6.265625 -0.1875 C 4.460938 -0.113281 3.125 -0.0507812 2.25 0 L 2.25 -1.625 C 4.363281 -1.625 5.867188 -2.007812 6.765625 -2.78125 C 7.671875 -3.5625 8.125 -5.035156 8.125 -7.203125 L 8.125 -31.4375 C 8.125 -33.757812 7.710938 -35.472656 6.890625 -36.578125 C 6.066406 -37.691406 4.519531 -38.25 2.25 -38.25 L 2.25 -39.875 C 3.894531 -39.71875 5.492188 -39.640625 7.046875 -39.640625 C 8.546875 -39.640625 9.976562 -39.726562 11.34375 -39.90625 C 12.707031 -40.09375 13.957031 -40.367188 15.09375 -40.734375 Z M 15.09375 -40.734375 "/></g></g></g><g fill="#d6c6e1" fill-opacity="1"><g transform="translate(190.625209, 184.979028)"><g><path d="M 21.609375 -40.96875 C 23.253906 -40.96875 24.851562 -40.757812 26.40625 -40.34375 C 27.957031 -39.925781 29.351562 -39.304688 30.59375 -38.484375 C 31.78125 -37.710938 32.679688 -36.820312 33.296875 -35.8125 C 33.921875 -34.8125 34.234375 -33.71875 34.234375 -32.53125 C 34.234375 -31.132812 33.84375 -30.0625 33.0625 -29.3125 C 32.289062 -28.5625 31.3125 -28.1875 30.125 -28.1875 C 28.988281 -28.1875 27.992188 -28.519531 27.140625 -29.1875 C 26.285156 -29.863281 25.859375 -30.820312 25.859375 -32.0625 C 25.859375 -33.25 26.179688 -34.203125 26.828125 -34.921875 C 27.472656 -35.648438 28.234375 -36.113281 29.109375 -36.3125 C 28.597656 -37.25 27.679688 -38.023438 26.359375 -38.640625 C 25.046875 -39.265625 23.640625 -39.578125 22.140625 -39.578125 C 20.859375 -39.578125 19.570312 -39.265625 18.28125 -38.640625 C 16.988281 -38.023438 15.800781 -37.003906 14.71875 -35.578125 C 13.632812 -34.160156 12.753906 -32.222656 12.078125 -29.765625 C 11.410156 -27.316406 11.078125 -24.257812 11.078125 -20.59375 C 11.078125 -16.050781 11.59375 -12.4375 12.625 -9.75 C 13.65625 -7.070312 15.007812 -5.148438 16.6875 -3.984375 C 18.363281 -2.828125 20.207031 -2.25 22.21875 -2.25 C 23.5625 -2.25 24.929688 -2.503906 26.328125 -3.015625 C 27.722656 -3.535156 29.039062 -4.375 30.28125 -5.53125 C 31.519531 -6.695312 32.578125 -8.257812 33.453125 -10.21875 L 34.921875 -9.671875 C 34.410156 -8.023438 33.5625 -6.363281 32.375 -4.6875 C 31.1875 -3.007812 29.632812 -1.628906 27.71875 -0.546875 C 25.8125 0.535156 23.460938 1.078125 20.671875 1.078125 C 17.472656 1.078125 14.582031 0.253906 12 -1.390625 C 9.414062 -3.046875 7.363281 -5.410156 5.84375 -8.484375 C 4.320312 -11.554688 3.5625 -15.207031 3.5625 -19.4375 C 3.5625 -23.664062 4.320312 -27.394531 5.84375 -30.625 C 7.363281 -33.851562 9.492188 -36.382812 12.234375 -38.21875 C 14.972656 -40.050781 18.097656 -40.96875 21.609375 -40.96875 Z M 21.609375 -40.96875 "/></g></g></g><g fill="#d6c6e1" fill-opacity="1"><g transform="translate(228.259846, 184.979028)"><g><path d="M 14.40625 -60.703125 L 14.40625 -7.203125 C 14.40625 -5.035156 14.789062 -3.5625 15.5625 -2.78125 C 16.332031 -2.007812 17.648438 -1.625 19.515625 -1.625 L 19.515625 0 C 18.691406 -0.0507812 17.460938 -0.113281 15.828125 -0.1875 C 14.203125 -0.269531 12.566406 -0.3125 10.921875 -0.3125 C 9.160156 -0.3125 7.375 -0.269531 5.5625 -0.1875 C 3.757812 -0.113281 2.421875 -0.0507812 1.546875 0 L 1.546875 -1.625 C 3.660156 -1.625 5.171875 -2.007812 6.078125 -2.78125 C 6.984375 -3.5625 7.4375 -5.035156 7.4375 -7.203125 L 7.4375 -51.421875 C 7.4375 -53.742188 7.019531 -55.457031 6.1875 -56.5625 C 5.363281 -57.675781 3.816406 -58.234375 1.546875 -58.234375 L 1.546875 -59.859375 C 3.203125 -59.703125 4.800781 -59.625 6.34375 -59.625 C 7.84375 -59.625 9.273438 -59.710938 10.640625 -59.890625 C 12.015625 -60.078125 13.269531 -60.347656 14.40625 -60.703125 Z M 39.03125 -39.875 L 39.03125 -38.328125 C 37.738281 -38.222656 36.523438 -37.875 35.390625 -37.28125 C 34.253906 -36.6875 33.144531 -35.820312 32.0625 -34.6875 L 21.140625 -23.234375 L 22.21875 -25.40625 L 36.625 -5.65625 C 37.5 -4.46875 38.335938 -3.535156 39.140625 -2.859375 C 39.941406 -2.191406 40.910156 -1.78125 42.046875 -1.625 L 42.046875 0 C 41.484375 -0.0507812 40.59375 -0.113281 39.375 -0.1875 C 38.164062 -0.269531 36.96875 -0.3125 35.78125 -0.3125 C 34.175781 -0.3125 32.546875 -0.269531 30.890625 -0.1875 C 29.242188 -0.113281 28.007812 -0.0507812 27.1875 0 L 27.1875 -1.625 C 28.21875 -1.625 28.9375 -1.878906 29.34375 -2.390625 C 29.757812 -2.910156 29.679688 -3.535156 29.109375 -4.265625 L 20.21875 -17.265625 C 19.226562 -18.660156 18.332031 -19.5625 17.53125 -19.96875 C 16.738281 -20.382812 15.59375 -20.617188 14.09375 -20.671875 L 14.09375 -22.21875 C 15.75 -22.425781 17.09375 -22.773438 18.125 -23.265625 C 19.15625 -23.753906 20.132812 -24.492188 21.0625 -25.484375 L 26.796875 -31.4375 C 28.441406 -33.144531 29.265625 -34.5 29.265625 -35.5 C 29.265625 -36.507812 28.734375 -37.234375 27.671875 -37.671875 C 26.617188 -38.109375 25.242188 -38.328125 23.546875 -38.328125 L 23.546875 -39.875 C 24.878906 -39.820312 26.382812 -39.757812 28.0625 -39.6875 C 29.75 -39.613281 31.160156 -39.578125 32.296875 -39.578125 C 33.171875 -39.578125 34.019531 -39.585938 34.84375 -39.609375 C 35.664062 -39.628906 36.4375 -39.664062 37.15625 -39.71875 C 37.882812 -39.769531 38.507812 -39.820312 39.03125 -39.875 Z M 39.03125 -39.875 "/></g></g></g><g clip-path="url(#510b007d55)"><g clip-path="url(#3e7383ec36)"><g clip-path="url(#09dce68dbb)"><path fill="#d6c6e1" d="M 311.066406 154.714844 C 311.339844 154.824219 311.488281 154.914062 311.59375 155.03125 C 311.675781 155.117188 311.800781 155.289062 311.871094 155.410156 C 311.9375 155.535156 312.015625 155.753906 312.039062 155.898438 C 312.0625 156.046875 312.070312 156.300781 312.050781 156.464844 C 312.039062 156.628906 311.984375 156.878906 311.933594 157.015625 C 311.886719 157.152344 311.769531 157.378906 311.679688 157.515625 C 311.582031 157.648438 311.296875 157.984375 311.042969 158.261719 C 310.765625 158.5625 310.402344 158.898438 310.136719 159.09375 C 309.886719 159.273438 309.265625 159.664062 308.757812 159.960938 C 308.25 160.257812 307.453125 160.714844 306.988281 160.96875 C 306.53125 161.230469 306.125 161.4375 306.085938 161.433594 C 306.054688 161.425781 305.957031 161.339844 305.871094 161.242188 C 305.785156 161.144531 305.550781 160.816406 305.347656 160.515625 C 305.132812 160.207031 304.847656 159.6875 304.675781 159.308594 C 304.511719 158.9375 304.324219 158.46875 304.269531 158.265625 C 304.214844 158.058594 304.136719 157.6875 304.101562 157.433594 C 304.0625 157.179688 304.027344 156.792969 304.019531 156.578125 C 304.011719 156.367188 304.03125 155.957031 304.0625 155.667969 C 304.097656 155.296875 304.160156 155.027344 304.273438 154.714844 C 304.363281 154.46875 304.503906 154.175781 304.601562 154.035156 C 304.691406 153.898438 304.851562 153.714844 304.953125 153.625 C 305.054688 153.53125 305.257812 153.398438 305.40625 153.328125 C 305.550781 153.257812 305.742188 153.191406 305.832031 153.179688 C 305.917969 153.167969 306.085938 153.167969 306.203125 153.171875 C 306.335938 153.1875 306.503906 153.238281 306.671875 153.328125 C 306.820312 153.402344 307.027344 153.554688 307.132812 153.664062 C 307.242188 153.773438 307.535156 154.1875 308.222656 155.316406 L 308.492188 155.171875 C 308.640625 155.085938 308.941406 154.9375 309.171875 154.835938 C 309.394531 154.730469 309.734375 154.625 309.925781 154.597656 C 310.121094 154.570312 310.371094 154.546875 310.480469 154.550781 C 310.609375 154.554688 310.828125 154.613281 311.066406 154.714844 Z M 310.070312 155.082031 C 309.917969 155.097656 309.636719 155.179688 309.449219 155.257812 C 309.261719 155.335938 308.90625 155.558594 308.65625 155.746094 C 308.371094 155.957031 308.164062 156.078125 308.09375 156.074219 C 308.03125 156.066406 307.941406 156.019531 307.886719 155.960938 C 307.835938 155.90625 307.65625 155.582031 307.484375 155.230469 C 307.308594 154.882812 307.109375 154.507812 307.039062 154.394531 C 306.964844 154.28125 306.839844 154.117188 306.757812 154.027344 C 306.675781 153.941406 306.542969 153.832031 306.460938 153.78125 C 306.367188 153.726562 306.230469 153.6875 306.109375 153.683594 C 306 153.679688 305.816406 153.71875 305.703125 153.761719 C 305.59375 153.808594 305.421875 153.910156 305.328125 153.988281 C 305.234375 154.070312 305.082031 154.246094 304.988281 154.382812 C 304.894531 154.519531 304.769531 154.761719 304.710938 154.925781 C 304.652344 155.09375 304.582031 155.425781 304.558594 155.695312 C 304.53125 155.953125 304.515625 156.351562 304.519531 156.582031 C 304.527344 156.808594 304.570312 157.214844 304.617188 157.488281 C 304.660156 157.761719 304.75 158.140625 304.8125 158.332031 C 304.871094 158.523438 305.097656 159.042969 305.304688 159.488281 C 305.515625 159.933594 305.777344 160.414062 305.886719 160.5625 C 305.996094 160.703125 306.105469 160.824219 306.125 160.828125 C 306.144531 160.824219 306.398438 160.699219 306.679688 160.550781 C 306.957031 160.398438 307.5625 160.058594 308.027344 159.800781 C 308.492188 159.546875 309.109375 159.175781 309.402344 158.984375 C 309.746094 158.761719 310.113281 158.46875 310.425781 158.167969 C 310.691406 157.910156 310.988281 157.589844 311.078125 157.453125 C 311.179688 157.308594 311.316406 157.019531 311.40625 156.761719 C 311.515625 156.460938 311.566406 156.253906 311.558594 156.121094 C 311.554688 156.011719 311.511719 155.832031 311.460938 155.722656 C 311.410156 155.605469 311.328125 155.472656 311.273438 155.417969 C 311.222656 155.363281 311.09375 155.277344 310.984375 155.222656 C 310.878906 155.167969 310.691406 155.109375 310.570312 155.09375 C 310.449219 155.070312 310.222656 155.066406 310.074219 155.082031 Z M 300.320312 158.390625 C 300.558594 158.472656 301.03125 158.667969 301.371094 158.820312 C 301.828125 159.023438 302.15625 159.210938 302.613281 159.519531 C 302.957031 159.753906 303.34375 160.042969 303.484375 160.167969 C 303.625 160.292969 303.90625 160.574219 304.109375 160.792969 C 304.316406 161.007812 304.625 161.378906 304.792969 161.609375 C 304.964844 161.839844 305.21875 162.226562 305.359375 162.464844 C 305.5 162.707031 305.703125 163.109375 305.820312 163.359375 C 305.929688 163.609375 306.078125 163.96875 306.152344 164.167969 C 306.21875 164.363281 306.332031 164.75 306.402344 165.027344 C 306.46875 165.304688 306.558594 165.746094 306.597656 166 C 306.632812 166.253906 306.679688 166.710938 306.695312 167.011719 C 306.710938 167.316406 306.722656 167.785156 306.714844 168.050781 C 306.707031 168.316406 306.679688 168.746094 306.65625 169.007812 C 306.628906 169.265625 306.554688 169.738281 306.488281 170.050781 C 306.417969 170.421875 306.28125 170.886719 306.105469 171.355469 C 305.925781 171.851562 305.742188 172.269531 305.527344 172.664062 C 305.355469 172.984375 305.074219 173.429688 304.914062 173.652344 C 304.75 173.875 304.453125 174.242188 304.253906 174.46875 C 304.054688 174.695312 303.6875 175.046875 303.445312 175.257812 C 303.199219 175.46875 302.792969 175.777344 302.546875 175.9375 C 302.300781 176.101562 301.824219 176.363281 301.503906 176.515625 C 301.175781 176.664062 300.667969 176.867188 300.367188 176.957031 C 300.0625 177.054688 299.59375 177.167969 299.320312 177.21875 C 299.050781 177.269531 298.613281 177.324219 298.347656 177.34375 C 298.089844 177.363281 297.699219 177.375 297.488281 177.378906 C 297.273438 177.382812 296.910156 177.363281 296.679688 177.335938 C 296.445312 177.316406 296.082031 177.265625 295.867188 177.234375 C 295.652344 177.203125 295.132812 177.070312 294.714844 176.933594 C 294.234375 176.78125 293.785156 176.601562 293.496094 176.460938 C 293.242188 176.335938 292.855469 176.121094 292.636719 175.984375 C 292.417969 175.847656 292.0625 175.59375 291.851562 175.421875 C 291.636719 175.246094 291.296875 174.9375 291.09375 174.738281 C 290.890625 174.53125 290.597656 174.203125 290.445312 174.003906 C 290.289062 173.808594 290.046875 173.476562 289.910156 173.265625 C 289.773438 173.0625 289.523438 172.605469 289.351562 172.261719 C 289.183594 171.917969 288.980469 171.453125 288.898438 171.222656 C 288.820312 170.996094 288.699219 170.582031 288.628906 170.304688 C 288.558594 170.027344 288.464844 169.515625 288.417969 169.171875 C 288.371094 168.832031 288.328125 168.308594 288.320312 168.003906 C 288.316406 167.703125 288.324219 167.1875 288.347656 166.859375 C 288.371094 166.527344 288.433594 165.980469 288.496094 165.648438 C 288.554688 165.316406 288.683594 164.785156 288.777344 164.464844 C 288.882812 164.132812 289.066406 163.652344 289.214844 163.335938 C 289.359375 163.035156 289.589844 162.597656 289.734375 162.367188 C 289.875 162.132812 290.144531 161.746094 290.332031 161.5 C 290.515625 161.253906 290.894531 160.832031 291.171875 160.566406 C 291.445312 160.300781 291.882812 159.921875 292.140625 159.734375 C 292.398438 159.542969 292.824219 159.269531 293.082031 159.121094 C 293.335938 158.972656 293.75 158.769531 294 158.664062 C 294.246094 158.5625 294.640625 158.421875 294.875 158.359375 C 295.113281 158.289062 295.46875 158.199219 295.667969 158.160156 C 295.867188 158.117188 296.296875 158.066406 296.628906 158.039062 C 296.949219 158.011719 297.535156 158 297.921875 158.011719 C 298.304688 158.019531 298.90625 158.078125 299.253906 158.132812 C 299.617188 158.195312 300.066406 158.300781 300.320312 158.390625 Z M 298.347656 160.074219 C 298.160156 160.054688 297.757812 160.039062 297.460938 160.039062 C 297.160156 160.039062 296.671875 160.085938 296.371094 160.136719 C 296.070312 160.183594 295.625 160.285156 295.386719 160.363281 C 295.148438 160.4375 294.730469 160.617188 294.453125 160.753906 C 294.183594 160.890625 293.769531 161.148438 293.539062 161.320312 C 293.308594 161.488281 292.976562 161.765625 292.804688 161.929688 C 292.632812 162.09375 292.324219 162.433594 292.125 162.6875 C 291.925781 162.941406 291.65625 163.332031 291.53125 163.554688 C 291.347656 163.878906 291.230469 164.167969 290.953125 164.992188 C 290.625 165.964844 290.601562 166.054688 290.5625 166.574219 C 290.535156 166.878906 290.515625 167.335938 290.515625 167.585938 C 290.515625 167.839844 290.523438 168.214844 290.542969 168.421875 C 290.554688 168.625 290.601562 168.988281 290.640625 169.226562 C 290.679688 169.46875 290.761719 169.84375 290.824219 170.066406 C 290.886719 170.289062 291 170.621094 291.074219 170.820312 C 291.148438 171.011719 291.328125 171.382812 291.472656 171.652344 C 291.617188 171.917969 291.886719 172.332031 292.066406 172.570312 C 292.246094 172.8125 292.496094 173.117188 292.621094 173.246094 C 292.742188 173.378906 293.035156 173.632812 293.265625 173.816406 C 293.496094 174 293.882812 174.273438 294.128906 174.421875 C 294.453125 174.628906 294.730469 174.75 295.207031 174.929688 C 295.625 175.078125 295.992188 175.183594 296.28125 175.230469 C 296.523438 175.265625 296.972656 175.304688 297.277344 175.316406 C 297.589844 175.324219 298.042969 175.3125 298.292969 175.289062 C 298.542969 175.265625 298.984375 175.191406 299.28125 175.117188 C 299.574219 175.046875 300.066406 174.875 300.371094 174.730469 C 300.679688 174.589844 301.082031 174.371094 301.277344 174.246094 C 301.472656 174.117188 301.761719 173.902344 301.929688 173.761719 C 302.09375 173.621094 302.355469 173.367188 302.511719 173.199219 C 302.671875 173.03125 302.917969 172.738281 303.058594 172.546875 C 303.195312 172.355469 303.40625 172.023438 303.527344 171.816406 C 303.667969 171.566406 303.84375 171.164062 304.019531 170.679688 C 304.167969 170.261719 304.332031 169.726562 304.382812 169.472656 C 304.429688 169.222656 304.484375 168.742188 304.503906 168.410156 C 304.519531 168.078125 304.519531 167.546875 304.507812 167.226562 C 304.496094 166.910156 304.449219 166.429688 304.402344 166.160156 C 304.355469 165.890625 304.246094 165.421875 304.15625 165.121094 C 304.0625 164.820312 303.878906 164.335938 303.738281 164.042969 C 303.601562 163.753906 303.375 163.339844 303.238281 163.136719 C 303.101562 162.929688 302.890625 162.640625 302.773438 162.496094 C 302.65625 162.351562 302.390625 162.066406 302.179688 161.867188 C 301.96875 161.664062 301.5625 161.34375 301.277344 161.148438 C 300.816406 160.832031 300.679688 160.769531 299.992188 160.507812 C 299.566406 160.34375 299.105469 160.1875 298.960938 160.160156 C 298.8125 160.136719 298.539062 160.097656 298.347656 160.074219 Z M 309.6875 162.949219 C 309.851562 163.011719 310.246094 163.171875 310.558594 163.3125 C 310.875 163.457031 311.324219 163.691406 311.558594 163.828125 C 311.789062 163.96875 312.191406 164.246094 312.441406 164.445312 C 312.691406 164.648438 313.054688 164.957031 313.246094 165.140625 C 313.4375 165.316406 313.753906 165.65625 313.949219 165.898438 C 314.148438 166.132812 314.453125 166.542969 314.625 166.804688 C 314.800781 167.070312 315.078125 167.578125 315.25 167.9375 C 315.421875 168.296875 315.628906 168.796875 315.707031 169.050781 C 315.785156 169.308594 315.890625 169.707031 315.949219 169.9375 C 316.003906 170.167969 316.085938 170.625 316.121094 170.953125 C 316.164062 171.28125 316.203125 171.707031 316.207031 171.910156 C 316.214844 172.113281 316.207031 172.453125 316.199219 172.679688 C 316.1875 172.898438 316.148438 173.339844 316.113281 173.648438 C 316.042969 174.191406 316.019531 174.269531 315.589844 175.46875 C 315.15625 176.671875 315.125 176.742188 314.816406 177.222656 C 314.640625 177.5 314.34375 177.921875 314.152344 178.167969 C 313.960938 178.414062 313.582031 178.832031 313.308594 179.097656 C 313.03125 179.363281 312.621094 179.730469 312.390625 179.898438 C 312.160156 180.070312 311.726562 180.363281 311.417969 180.546875 C 311.113281 180.734375 310.605469 180.988281 310.292969 181.113281 C 309.976562 181.242188 309.503906 181.40625 309.234375 181.484375 C 308.964844 181.554688 308.527344 181.660156 308.25 181.707031 C 307.976562 181.75 307.546875 181.804688 307.28125 181.824219 C 307.015625 181.847656 306.566406 181.859375 306.265625 181.859375 C 305.96875 181.855469 305.460938 181.828125 305.132812 181.789062 C 304.640625 181.742188 304.390625 181.6875 303.703125 181.476562 C 303.242188 181.328125 302.621094 181.105469 302.316406 180.96875 C 301.9375 180.804688 301.582031 180.609375 301.199219 180.351562 C 300.894531 180.144531 300.4375 179.796875 300.195312 179.578125 C 299.945312 179.363281 299.582031 179.019531 299.386719 178.8125 C 299.195312 178.609375 298.996094 178.390625 298.871094 178.214844 L 299.445312 178.15625 L 299.871094 178.613281 C 300.105469 178.863281 300.523438 179.246094 300.804688 179.457031 C 301.082031 179.671875 301.484375 179.960938 301.703125 180.097656 C 302.019531 180.296875 302.316406 180.429688 303.121094 180.742188 C 303.933594 181.050781 304.242188 181.152344 304.667969 181.230469 C 304.957031 181.289062 305.394531 181.351562 305.644531 181.371094 C 305.894531 181.394531 306.289062 181.414062 306.53125 181.414062 C 306.773438 181.414062 307.238281 181.382812 307.5625 181.339844 C 307.882812 181.300781 308.292969 181.238281 308.460938 181.195312 C 308.628906 181.15625 308.992188 181.054688 309.265625 180.964844 C 309.535156 180.875 310.050781 180.667969 310.414062 180.5 C 310.773438 180.332031 311.296875 180.042969 311.570312 179.863281 C 311.847656 179.679688 312.246094 179.378906 312.453125 179.203125 C 312.660156 179.023438 312.984375 178.71875 313.164062 178.53125 C 313.347656 178.34375 313.605469 178.042969 313.746094 177.867188 C 313.882812 177.6875 314.128906 177.351562 314.289062 177.109375 C 314.570312 176.703125 314.609375 176.601562 315.0625 175.40625 C 315.5 174.246094 315.542969 174.09375 315.609375 173.648438 C 315.648438 173.378906 315.6875 172.953125 315.707031 172.707031 C 315.722656 172.460938 315.722656 172.007812 315.707031 171.703125 C 315.691406 171.398438 315.644531 170.945312 315.609375 170.691406 C 315.574219 170.433594 315.460938 169.957031 315.367188 169.625 C 315.269531 169.292969 315.058594 168.722656 314.890625 168.351562 C 314.726562 167.984375 314.472656 167.5 314.328125 167.273438 C 314.183594 167.046875 313.941406 166.699219 313.785156 166.503906 C 313.628906 166.300781 313.429688 166.054688 313.339844 165.949219 C 313.25 165.847656 312.984375 165.585938 312.75 165.371094 C 312.519531 165.160156 312.171875 164.871094 311.980469 164.730469 C 311.789062 164.589844 311.445312 164.355469 311.214844 164.210938 C 310.882812 164.003906 310.585938 163.867188 309.824219 163.570312 C 309.234375 163.347656 308.6875 163.164062 308.445312 163.109375 C 308.222656 163.0625 307.730469 162.984375 306.652344 162.875 L 306.425781 162.414062 L 306.796875 162.433594 C 307 162.441406 307.457031 162.488281 307.808594 162.527344 C 308.15625 162.570312 308.660156 162.65625 308.917969 162.730469 C 309.175781 162.796875 309.519531 162.898438 309.6875 162.949219 Z M 309.261719 164.417969 C 309.492188 164.515625 309.851562 164.679688 310.054688 164.78125 C 310.261719 164.882812 310.621094 165.09375 310.863281 165.253906 C 311.105469 165.414062 311.476562 165.695312 311.691406 165.882812 C 311.90625 166.070312 312.261719 166.441406 312.476562 166.703125 C 312.691406 166.96875 312.964844 167.328125 313.085938 167.511719 C 313.207031 167.691406 313.40625 168.046875 313.542969 168.304688 C 313.671875 168.558594 313.855469 168.992188 313.945312 169.265625 C 314.035156 169.542969 314.15625 169.992188 314.214844 170.265625 C 314.273438 170.539062 314.332031 170.953125 314.34375 171.1875 C 314.363281 171.417969 314.367188 171.828125 314.359375 172.089844 C 314.351562 172.355469 314.304688 172.828125 314.253906 173.136719 C 314.183594 173.617188 314.117188 173.84375 313.800781 174.722656 C 313.441406 175.730469 313.429688 175.753906 313.085938 176.265625 C 312.890625 176.550781 312.589844 176.941406 312.421875 177.132812 C 312.25 177.320312 311.984375 177.585938 311.839844 177.71875 C 311.691406 177.851562 311.410156 178.074219 311.214844 178.214844 C 311.019531 178.355469 310.625 178.609375 310.328125 178.769531 C 310.039062 178.933594 309.632812 179.136719 309.421875 179.214844 C 309.210938 179.296875 308.886719 179.414062 308.695312 179.476562 C 308.503906 179.539062 308.171875 179.625 307.957031 179.664062 C 307.742188 179.710938 307.363281 179.769531 307.109375 179.800781 C 306.859375 179.828125 306.414062 179.847656 306.117188 179.84375 C 305.824219 179.835938 305.40625 179.804688 305.191406 179.773438 C 304.90625 179.734375 304.542969 179.621094 303.867188 179.382812 C 303.335938 179.191406 302.8125 178.976562 302.65625 178.886719 C 302.5 178.800781 302.183594 178.597656 301.941406 178.4375 C 301.703125 178.277344 301.410156 178.058594 301.085938 177.746094 L 301.542969 177.53125 L 301.898438 177.804688 C 302.09375 177.953125 302.382812 178.15625 302.546875 178.257812 C 302.710938 178.359375 303.164062 178.574219 303.558594 178.734375 C 304.011719 178.917969 304.457031 179.0625 304.753906 179.132812 C 305.015625 179.191406 305.441406 179.261719 305.699219 179.289062 C 305.960938 179.316406 306.410156 179.324219 306.695312 179.3125 C 306.984375 179.296875 307.414062 179.261719 307.652344 179.226562 C 307.894531 179.1875 308.308594 179.089844 308.582031 179.007812 C 308.851562 178.933594 309.335938 178.742188 309.660156 178.585938 C 310.007812 178.417969 310.460938 178.148438 310.769531 177.925781 C 311.050781 177.710938 311.453125 177.375 311.664062 177.167969 C 311.871094 176.960938 312.15625 176.644531 312.296875 176.46875 C 312.433594 176.292969 312.664062 175.957031 312.808594 175.726562 C 313.035156 175.371094 313.125 175.171875 313.402344 174.398438 C 313.648438 173.714844 313.746094 173.378906 313.796875 173.046875 C 313.832031 172.808594 313.871094 172.371094 313.878906 172.074219 C 313.882812 171.777344 313.871094 171.320312 313.839844 171.054688 C 313.8125 170.792969 313.734375 170.332031 313.660156 170.039062 C 313.574219 169.679688 313.421875 169.261719 313.179688 168.761719 C 312.972656 168.3125 312.703125 167.847656 312.515625 167.59375 C 312.34375 167.363281 312.039062 166.992188 311.832031 166.78125 C 311.625 166.5625 311.308594 166.257812 311.125 166.105469 C 310.9375 165.949219 310.5625 165.671875 310.292969 165.484375 C 309.816406 165.160156 309.757812 165.132812 308.886719 164.816406 C 308.261719 164.59375 307.878906 164.480469 307.679688 164.457031 C 307.515625 164.4375 307.339844 164.421875 307.292969 164.417969 C 307.230469 164.417969 307.183594 164.355469 307.148438 164.1875 C 307.09375 163.992188 307.097656 163.953125 307.167969 163.941406 C 307.210938 163.933594 307.449219 163.960938 307.6875 164 C 307.929688 164.042969 308.285156 164.113281 308.480469 164.15625 C 308.675781 164.203125 309.027344 164.324219 309.261719 164.417969 Z M 302.304688 163.371094 C 302.339844 163.386719 302.421875 163.476562 302.480469 163.574219 C 302.53125 163.671875 302.585938 163.757812 302.597656 163.769531 C 302.609375 163.78125 302.390625 163.902344 302.117188 164.039062 C 301.839844 164.175781 301.40625 164.433594 301.152344 164.609375 C 300.898438 164.785156 300.429688 165.179688 300.105469 165.488281 C 299.785156 165.796875 299.367188 166.234375 299.1875 166.46875 C 299.003906 166.699219 298.738281 167.089844 298.585938 167.332031 C 298.4375 167.578125 298.203125 168.039062 298.074219 168.355469 C 297.9375 168.671875 297.730469 169.25 297.613281 169.632812 C 297.460938 170.117188 297.371094 170.5 297.320312 170.914062 C 297.28125 171.242188 297.246094 171.738281 297.242188 172.019531 C 297.238281 172.300781 297.253906 172.722656 297.277344 172.960938 C 297.300781 173.195312 297.367188 173.597656 297.417969 173.859375 C 297.472656 174.121094 297.515625 174.359375 297.511719 174.394531 C 297.511719 174.429688 297.414062 174.453125 297.273438 174.449219 C 297.136719 174.441406 297 174.429688 296.972656 174.417969 C 296.941406 174.40625 296.875 174.042969 296.820312 173.605469 C 296.773438 173.167969 296.726562 172.578125 296.722656 172.292969 C 296.71875 172.011719 296.734375 171.574219 296.753906 171.328125 C 296.777344 171.085938 296.839844 170.621094 296.898438 170.300781 C 296.976562 169.871094 297.085938 169.503906 297.308594 168.878906 C 297.476562 168.414062 297.699219 167.871094 297.800781 167.667969 C 297.902344 167.460938 298.136719 167.070312 298.316406 166.796875 C 298.496094 166.523438 298.777344 166.136719 298.933594 165.941406 C 299.097656 165.746094 299.449219 165.375 299.714844 165.113281 C 299.988281 164.859375 300.359375 164.527344 300.550781 164.386719 C 300.734375 164.242188 301.078125 164.003906 301.304688 163.859375 C 301.53125 163.714844 301.835938 163.542969 301.980469 163.476562 C 302.117188 163.402344 302.269531 163.359375 302.304688 163.371094 Z M 303.027344 164.664062 C 303.066406 164.675781 303.121094 164.765625 303.15625 164.863281 C 303.195312 164.957031 303.210938 165.066406 303.199219 165.101562 C 303.191406 165.128906 302.976562 165.265625 302.726562 165.402344 C 302.476562 165.539062 302.101562 165.773438 301.898438 165.925781 C 301.6875 166.078125 301.359375 166.367188 301.160156 166.5625 C 300.964844 166.757812 300.683594 167.074219 300.535156 167.261719 C 300.390625 167.453125 300.171875 167.78125 300.039062 167.984375 C 299.902344 168.210938 299.695312 168.644531 299.523438 169.058594 C 299.363281 169.464844 299.199219 169.945312 299.136719 170.207031 C 299.078125 170.453125 299.007812 170.917969 298.976562 171.230469 C 298.949219 171.542969 298.929688 171.980469 298.9375 172.195312 C 298.949219 172.410156 298.996094 172.78125 299.046875 173.019531 C 299.09375 173.261719 299.183594 173.613281 299.253906 173.804688 C 299.320312 173.992188 299.367188 174.160156 299.363281 174.171875 C 299.359375 174.1875 299.246094 174.230469 299.113281 174.265625 C 298.976562 174.300781 298.851562 174.324219 298.824219 174.3125 C 298.796875 174.304688 298.726562 174.078125 298.667969 173.804688 C 298.605469 173.535156 298.527344 173.109375 298.5 172.859375 C 298.46875 172.605469 298.441406 172.203125 298.433594 171.960938 C 298.425781 171.714844 298.445312 171.296875 298.476562 171.023438 C 298.503906 170.75 298.574219 170.3125 298.632812 170.050781 C 298.699219 169.746094 298.84375 169.3125 299.03125 168.855469 C 299.21875 168.390625 299.414062 167.992188 299.582031 167.714844 C 299.726562 167.484375 299.953125 167.152344 300.089844 166.972656 C 300.226562 166.796875 300.460938 166.519531 300.613281 166.363281 C 300.761719 166.207031 301.039062 165.945312 301.21875 165.785156 C 301.40625 165.625 301.746094 165.367188 301.980469 165.210938 C 302.214844 165.054688 302.535156 164.863281 302.6875 164.78125 C 302.84375 164.703125 302.996094 164.652344 303.027344 164.664062 Z M 303.027344 164.664062 " fill-opacity="1" fill-rule="evenodd"/></g></g></g><g fill="#d6c6e1" fill-opacity="1"><g transform="translate(62.077068, 237.984901)"><g><path d="M 21.375 -60.5625 C 22.820312 -60.5625 24.097656 -60.363281 25.203125 -59.96875 C 26.316406 -59.582031 27.285156 -59.082031 28.109375 -58.46875 C 28.878906 -57.84375 29.472656 -57.117188 29.890625 -56.296875 C 30.304688 -55.472656 30.515625 -54.597656 30.515625 -53.671875 C 30.515625 -52.484375 30.125 -51.5 29.34375 -50.71875 C 28.570312 -49.945312 27.59375 -49.5625 26.40625 -49.5625 C 25.269531 -49.5625 24.273438 -49.9375 23.421875 -50.6875 C 22.566406 -51.4375 22.140625 -52.453125 22.140625 -53.734375 C 22.140625 -54.828125 22.4375 -55.707031 23.03125 -56.375 C 23.625 -57.039062 24.414062 -57.476562 25.40625 -57.6875 C 25.25 -58.15625 24.847656 -58.554688 24.203125 -58.890625 C 23.554688 -59.222656 22.691406 -59.390625 21.609375 -59.390625 C 20.421875 -59.390625 19.398438 -59.128906 18.546875 -58.609375 C 17.691406 -58.097656 17.035156 -57.40625 16.578125 -56.53125 C 15.953125 -55.445312 15.5625 -53.832031 15.40625 -51.6875 C 15.25 -49.539062 15.171875 -46.25 15.171875 -41.8125 L 15.171875 -39.796875 L 23.46875 -39.796875 L 23.46875 -38.25 L 15.171875 -38.25 L 15.171875 -7.96875 C 15.171875 -5.445312 15.90625 -3.757812 17.375 -2.90625 C 18.851562 -2.050781 20.859375 -1.625 23.390625 -1.625 L 23.390625 0 C 22.203125 -0.0507812 20.519531 -0.113281 18.34375 -0.1875 C 16.175781 -0.269531 13.878906 -0.3125 11.453125 -0.3125 C 9.703125 -0.3125 7.960938 -0.269531 6.234375 -0.1875 C 4.503906 -0.113281 3.203125 -0.0507812 2.328125 0 L 2.328125 -1.625 C 4.441406 -1.625 5.945312 -2.007812 6.84375 -2.78125 C 7.75 -3.5625 8.203125 -5.035156 8.203125 -7.203125 L 8.203125 -38.25 L 2.015625 -38.25 L 2.015625 -39.796875 L 8.203125 -39.796875 C 8.203125 -42.847656 8.332031 -45.40625 8.59375 -47.46875 C 8.851562 -49.53125 9.265625 -51.296875 9.828125 -52.765625 C 10.398438 -54.242188 11.175781 -55.550781 12.15625 -56.6875 C 13.1875 -57.875 14.5 -58.816406 16.09375 -59.515625 C 17.695312 -60.210938 19.457031 -60.5625 21.375 -60.5625 Z M 21.375 -60.5625 "/></g></g></g><g fill="#d6c6e1" fill-opacity="1"><g transform="translate(86.469885, 237.984901)"><g><path d="M 21.21875 -40.96875 C 24.519531 -40.96875 27.488281 -40.242188 30.125 -38.796875 C 32.757812 -37.347656 34.863281 -35.070312 36.4375 -31.96875 C 38.007812 -28.875 38.796875 -24.851562 38.796875 -19.90625 C 38.796875 -14.945312 38.007812 -10.929688 36.4375 -7.859375 C 34.863281 -4.785156 32.757812 -2.523438 30.125 -1.078125 C 27.488281 0.359375 24.519531 1.078125 21.21875 1.078125 C 17.96875 1.078125 15.007812 0.359375 12.34375 -1.078125 C 9.6875 -2.523438 7.570312 -4.785156 6 -7.859375 C 4.425781 -10.929688 3.640625 -14.945312 3.640625 -19.90625 C 3.640625 -24.851562 4.425781 -28.875 6 -31.96875 C 7.570312 -35.070312 9.6875 -37.347656 12.34375 -38.796875 C 15.007812 -40.242188 17.96875 -40.96875 21.21875 -40.96875 Z M 21.21875 -39.421875 C 18.269531 -39.421875 15.851562 -37.894531 13.96875 -34.84375 C 12.09375 -31.800781 11.15625 -26.820312 11.15625 -19.90625 C 11.15625 -12.988281 12.09375 -8.019531 13.96875 -5 C 15.851562 -1.976562 18.269531 -0.46875 21.21875 -0.46875 C 24.15625 -0.46875 26.566406 -1.976562 28.453125 -5 C 30.335938 -8.019531 31.28125 -12.988281 31.28125 -19.90625 C 31.28125 -26.820312 30.335938 -31.800781 28.453125 -34.84375 C 26.566406 -37.894531 24.15625 -39.421875 21.21875 -39.421875 Z M 21.21875 -39.421875 "/></g></g></g><g fill="#d6c6e1" fill-opacity="1"><g transform="translate(128.905639, 237.984901)"><g><path d="M 26.328125 -40.96875 C 27.722656 -40.96875 28.945312 -40.679688 30 -40.109375 C 31.0625 -39.546875 31.890625 -38.8125 32.484375 -37.90625 C 33.078125 -37 33.375 -35.976562 33.375 -34.84375 C 33.375 -33.550781 32.972656 -32.414062 32.171875 -31.4375 C 31.367188 -30.457031 30.300781 -29.96875 28.96875 -29.96875 C 27.875 -29.96875 26.914062 -30.316406 26.09375 -31.015625 C 25.269531 -31.710938 24.859375 -32.707031 24.859375 -34 C 24.859375 -34.976562 25.128906 -35.816406 25.671875 -36.515625 C 26.210938 -37.210938 26.816406 -37.765625 27.484375 -38.171875 C 27.128906 -38.691406 26.585938 -38.953125 25.859375 -38.953125 C 24.265625 -38.953125 22.796875 -38.472656 21.453125 -37.515625 C 20.109375 -36.554688 18.972656 -35.328125 18.046875 -33.828125 C 17.117188 -32.335938 16.394531 -30.753906 15.875 -29.078125 C 15.351562 -27.398438 15.09375 -25.835938 15.09375 -24.390625 L 15.09375 -7.96875 C 15.09375 -5.445312 15.828125 -3.757812 17.296875 -2.90625 C 18.773438 -2.050781 20.78125 -1.625 23.3125 -1.625 L 23.3125 0 C 22.125 -0.0507812 20.441406 -0.113281 18.265625 -0.1875 C 16.097656 -0.269531 13.804688 -0.3125 11.390625 -0.3125 C 9.628906 -0.3125 7.882812 -0.269531 6.15625 -0.1875 C 4.425781 -0.113281 3.125 -0.0507812 2.25 0 L 2.25 -1.625 C 4.363281 -1.625 5.867188 -2.007812 6.765625 -2.78125 C 7.671875 -3.5625 8.125 -5.035156 8.125 -7.203125 L 8.125 -31.4375 C 8.125 -33.757812 7.710938 -35.472656 6.890625 -36.578125 C 6.066406 -37.691406 4.519531 -38.25 2.25 -38.25 L 2.25 -39.875 C 3.894531 -39.71875 5.492188 -39.640625 7.046875 -39.640625 C 8.546875 -39.640625 9.976562 -39.726562 11.34375 -39.90625 C 12.707031 -40.09375 13.957031 -40.367188 15.09375 -40.734375 L 15.09375 -31.046875 C 15.664062 -32.546875 16.476562 -34.054688 17.53125 -35.578125 C 18.59375 -37.097656 19.875 -38.375 21.375 -39.40625 C 22.875 -40.445312 24.523438 -40.96875 26.328125 -40.96875 Z M 26.328125 -40.96875 "/></g></g></g><g fill="#d6c6e1" fill-opacity="1"><g transform="translate(161.816579, 237.984901)"><g><path d="M 21.0625 -40.96875 C 25.601562 -40.96875 29.148438 -39.582031 31.703125 -36.8125 C 34.265625 -34.050781 35.546875 -29.753906 35.546875 -23.921875 L 8.203125 -23.921875 L 8.125 -25.40625 L 28.109375 -25.40625 C 28.210938 -27.925781 28.003906 -30.257812 27.484375 -32.40625 C 26.972656 -34.550781 26.160156 -36.269531 25.046875 -37.5625 C 23.941406 -38.851562 22.507812 -39.5 20.75 -39.5 C 18.375 -39.5 16.269531 -38.3125 14.4375 -35.9375 C 12.601562 -33.5625 11.507812 -29.789062 11.15625 -24.625 L 11.390625 -24.3125 C 11.285156 -23.539062 11.207031 -22.6875 11.15625 -21.75 C 11.101562 -20.820312 11.078125 -19.894531 11.078125 -18.96875 C 11.078125 -15.457031 11.644531 -12.4375 12.78125 -9.90625 C 13.914062 -7.382812 15.398438 -5.460938 17.234375 -4.140625 C 19.066406 -2.828125 20.960938 -2.171875 22.921875 -2.171875 C 24.472656 -2.171875 25.941406 -2.414062 27.328125 -2.90625 C 28.722656 -3.394531 30.015625 -4.207031 31.203125 -5.34375 C 32.390625 -6.476562 33.425781 -8 34.3125 -9.90625 L 35.859375 -9.296875 C 35.285156 -7.585938 34.351562 -5.929688 33.0625 -4.328125 C 31.769531 -2.734375 30.144531 -1.429688 28.1875 -0.421875 C 26.226562 0.578125 23.957031 1.078125 21.375 1.078125 C 17.65625 1.078125 14.46875 0.226562 11.8125 -1.46875 C 9.15625 -3.175781 7.113281 -5.539062 5.6875 -8.5625 C 4.269531 -11.582031 3.5625 -15.050781 3.5625 -18.96875 C 3.5625 -23.507812 4.285156 -27.421875 5.734375 -30.703125 C 7.179688 -33.984375 9.21875 -36.515625 11.84375 -38.296875 C 14.476562 -40.078125 17.550781 -40.96875 21.0625 -40.96875 Z M 21.0625 -40.96875 "/></g></g></g><g fill="#d6c6e1" fill-opacity="1"><g transform="translate(200.690211, 237.984901)"><g><path d="M 37.640625 -39.875 L 37.640625 -38.328125 C 36.648438 -38.222656 35.742188 -37.785156 34.921875 -37.015625 C 34.097656 -36.242188 33.320312 -34.875 32.59375 -32.90625 L 19.90625 0.390625 C 19.695312 0.390625 19.488281 0.390625 19.28125 0.390625 C 19.070312 0.390625 18.835938 0.390625 18.578125 0.390625 L 4.34375 -33.921875 C 3.507812 -35.929688 2.691406 -37.15625 1.890625 -37.59375 C 1.097656 -38.03125 0.414062 -38.25 -0.15625 -38.25 L -0.15625 -39.875 C 0.875 -39.820312 1.941406 -39.757812 3.046875 -39.6875 C 4.160156 -39.613281 5.363281 -39.578125 6.65625 -39.578125 C 8.257812 -39.578125 9.953125 -39.597656 11.734375 -39.640625 C 13.515625 -39.691406 15.175781 -39.769531 16.71875 -39.875 L 16.71875 -38.25 C 15.4375 -38.25 14.289062 -38.160156 13.28125 -37.984375 C 12.269531 -37.804688 11.625 -37.300781 11.34375 -36.46875 C 11.0625 -35.644531 11.304688 -34.226562 12.078125 -32.21875 L 21.765625 -8.28125 L 21.296875 -7.90625 L 30.125 -31.046875 C 30.789062 -32.753906 31.0625 -34.109375 30.9375 -35.109375 C 30.8125 -36.117188 30.296875 -36.878906 29.390625 -37.390625 C 28.484375 -37.910156 27.101562 -38.222656 25.25 -38.328125 L 25.25 -39.875 C 26.175781 -39.820312 26.972656 -39.78125 27.640625 -39.75 C 28.316406 -39.726562 28.976562 -39.703125 29.625 -39.671875 C 30.269531 -39.648438 30.976562 -39.640625 31.75 -39.640625 C 32.9375 -39.640625 34.003906 -39.664062 34.953125 -39.71875 C 35.910156 -39.769531 36.804688 -39.820312 37.640625 -39.875 Z M 37.640625 -39.875 "/></g></g></g><g fill="#d6c6e1" fill-opacity="1"><g transform="translate(237.860218, 237.984901)"><g><path d="M 21.0625 -40.96875 C 25.601562 -40.96875 29.148438 -39.582031 31.703125 -36.8125 C 34.265625 -34.050781 35.546875 -29.753906 35.546875 -23.921875 L 8.203125 -23.921875 L 8.125 -25.40625 L 28.109375 -25.40625 C 28.210938 -27.925781 28.003906 -30.257812 27.484375 -32.40625 C 26.972656 -34.550781 26.160156 -36.269531 25.046875 -37.5625 C 23.941406 -38.851562 22.507812 -39.5 20.75 -39.5 C 18.375 -39.5 16.269531 -38.3125 14.4375 -35.9375 C 12.601562 -33.5625 11.507812 -29.789062 11.15625 -24.625 L 11.390625 -24.3125 C 11.285156 -23.539062 11.207031 -22.6875 11.15625 -21.75 C 11.101562 -20.820312 11.078125 -19.894531 11.078125 -18.96875 C 11.078125 -15.457031 11.644531 -12.4375 12.78125 -9.90625 C 13.914062 -7.382812 15.398438 -5.460938 17.234375 -4.140625 C 19.066406 -2.828125 20.960938 -2.171875 22.921875 -2.171875 C 24.472656 -2.171875 25.941406 -2.414062 27.328125 -2.90625 C 28.722656 -3.394531 30.015625 -4.207031 31.203125 -5.34375 C 32.390625 -6.476562 33.425781 -8 34.3125 -9.90625 L 35.859375 -9.296875 C 35.285156 -7.585938 34.351562 -5.929688 33.0625 -4.328125 C 31.769531 -2.734375 30.144531 -1.429688 28.1875 -0.421875 C 26.226562 0.578125 23.957031 1.078125 21.375 1.078125 C 17.65625 1.078125 14.46875 0.226562 11.8125 -1.46875 C 9.15625 -3.175781 7.113281 -5.539062 5.6875 -8.5625 C 4.269531 -11.582031 3.5625 -15.050781 3.5625 -18.96875 C 3.5625 -23.507812 4.285156 -27.421875 5.734375 -30.703125 C 7.179688 -33.984375 9.21875 -36.515625 11.84375 -38.296875 C 14.476562 -40.078125 17.550781 -40.96875 21.0625 -40.96875 Z M 21.0625 -40.96875 "/></g></g></g><g fill="#d6c6e1" fill-opacity="1"><g transform="translate(277.043607, 237.984901)"><g><path d="M 26.328125 -40.96875 C 27.722656 -40.96875 28.945312 -40.679688 30 -40.109375 C 31.0625 -39.546875 31.890625 -38.8125 32.484375 -37.90625 C 33.078125 -37 33.375 -35.976562 33.375 -34.84375 C 33.375 -33.550781 32.972656 -32.414062 32.171875 -31.4375 C 31.367188 -30.457031 30.300781 -29.96875 28.96875 -29.96875 C 27.875 -29.96875 26.914062 -30.316406 26.09375 -31.015625 C 25.269531 -31.710938 24.859375 -32.707031 24.859375 -34 C 24.859375 -34.976562 25.128906 -35.816406 25.671875 -36.515625 C 26.210938 -37.210938 26.816406 -37.765625 27.484375 -38.171875 C 27.128906 -38.691406 26.585938 -38.953125 25.859375 -38.953125 C 24.265625 -38.953125 22.796875 -38.472656 21.453125 -37.515625 C 20.109375 -36.554688 18.972656 -35.328125 18.046875 -33.828125 C 17.117188 -32.335938 16.394531 -30.753906 15.875 -29.078125 C 15.351562 -27.398438 15.09375 -25.835938 15.09375 -24.390625 L 15.09375 -7.96875 C 15.09375 -5.445312 15.828125 -3.757812 17.296875 -2.90625 C 18.773438 -2.050781 20.78125 -1.625 23.3125 -1.625 L 23.3125 0 C 22.125 -0.0507812 20.441406 -0.113281 18.265625 -0.1875 C 16.097656 -0.269531 13.804688 -0.3125 11.390625 -0.3125 C 9.628906 -0.3125 7.882812 -0.269531 6.15625 -0.1875 C 4.425781 -0.113281 3.125 -0.0507812 2.25 0 L 2.25 -1.625 C 4.363281 -1.625 5.867188 -2.007812 6.765625 -2.78125 C 7.671875 -3.5625 8.125 -5.035156 8.125 -7.203125 L 8.125 -31.4375 C 8.125 -33.757812 7.710938 -35.472656 6.890625 -36.578125 C 6.066406 -37.691406 4.519531 -38.25 2.25 -38.25 L 2.25 -39.875 C 3.894531 -39.71875 5.492188 -39.640625 7.046875 -39.640625 C 8.546875 -39.640625 9.976562 -39.726562 11.34375 -39.90625 C 12.707031 -40.09375 13.957031 -40.367188 15.09375 -40.734375 L 15.09375 -31.046875 C 15.664062 -32.546875 16.476562 -34.054688 17.53125 -35.578125 C 18.59375 -37.097656 19.875 -38.375 21.375 -39.40625 C 22.875 -40.445312 24.523438 -40.96875 26.328125 -40.96875 Z M 26.328125 -40.96875 "/></g></g></g><g fill="#d6c6e1" fill-opacity="1"><g transform="translate(274.27821, 175.793559)"><g><path d="M 1.6875 -18.609375 L 10.203125 -18.609375 C 10.492188 -18.609375 10.734375 -18.503906 10.921875 -18.296875 C 11.117188 -18.085938 11.21875 -17.835938 11.21875 -17.546875 C 11.21875 -17.273438 11.117188 -17.039062 10.921875 -16.84375 C 10.734375 -16.65625 10.492188 -16.5625 10.203125 -16.5625 L 1.6875 -16.5625 C 1.394531 -16.5625 1.144531 -16.664062 0.9375 -16.875 C 0.726562 -17.082031 0.625 -17.320312 0.625 -17.59375 C 0.625 -17.882812 0.726562 -18.125 0.9375 -18.3125 C 1.144531 -18.507812 1.394531 -18.609375 1.6875 -18.609375 Z M 5.453125 -23.765625 C 5.765625 -23.765625 6.023438 -23.65625 6.234375 -23.4375 C 6.441406 -23.21875 6.546875 -22.960938 6.546875 -22.671875 L 6.546875 -4.3125 C 6.546875 -3.632812 6.632812 -3.125 6.8125 -2.78125 C 7 -2.4375 7.238281 -2.207031 7.53125 -2.09375 C 7.820312 -1.988281 8.113281 -1.9375 8.40625 -1.9375 C 8.601562 -1.9375 8.78125 -1.96875 8.9375 -2.03125 C 9.09375 -2.09375 9.269531 -2.125 9.46875 -2.125 C 9.6875 -2.125 9.875 -2.035156 10.03125 -1.859375 C 10.195312 -1.691406 10.28125 -1.472656 10.28125 -1.203125 C 10.28125 -0.859375 10.082031 -0.570312 9.6875 -0.34375 C 9.300781 -0.113281 8.835938 0 8.296875 0 C 8.078125 0 7.75 -0.015625 7.3125 -0.046875 C 6.875 -0.0859375 6.421875 -0.222656 5.953125 -0.453125 C 5.492188 -0.679688 5.109375 -1.085938 4.796875 -1.671875 C 4.492188 -2.265625 4.34375 -3.109375 4.34375 -4.203125 L 4.34375 -22.671875 C 4.34375 -22.960938 4.445312 -23.21875 4.65625 -23.4375 C 4.863281 -23.65625 5.128906 -23.765625 5.453125 -23.765625 Z M 5.453125 -23.765625 "/></g></g></g><g transform="matrix(1, 0, 0, 1, 125, 251)"><g clip-path="url(#8919010e51)"><g fill="#d6c6e1" fill-opacity="1"><g transform="translate(0.64113, 14.380019)"><g><path d="M 8.546875 -8.875 C 8.617188 -8.820312 8.660156 -8.757812 8.671875 -8.6875 C 8.679688 -8.625 8.660156 -8.554688 8.609375 -8.484375 C 8.566406 -8.410156 8.507812 -8.367188 8.4375 -8.359375 C 8.375 -8.359375 8.304688 -8.378906 8.234375 -8.421875 C 7.847656 -8.691406 7.425781 -8.90625 6.96875 -9.0625 C 6.519531 -9.21875 6.035156 -9.296875 5.515625 -9.296875 C 4.921875 -9.296875 4.367188 -9.1875 3.859375 -8.96875 C 3.347656 -8.75 2.898438 -8.441406 2.515625 -8.046875 C 2.128906 -7.648438 1.820312 -7.179688 1.59375 -6.640625 C 1.375 -6.097656 1.265625 -5.5 1.265625 -4.84375 C 1.265625 -4.1875 1.375 -3.582031 1.59375 -3.03125 C 1.820312 -2.488281 2.128906 -2.019531 2.515625 -1.625 C 2.898438 -1.226562 3.347656 -0.921875 3.859375 -0.703125 C 4.367188 -0.492188 4.921875 -0.390625 5.515625 -0.390625 C 6.035156 -0.390625 6.519531 -0.46875 6.96875 -0.625 C 7.414062 -0.78125 7.835938 -0.988281 8.234375 -1.25 C 8.296875 -1.289062 8.363281 -1.304688 8.4375 -1.296875 C 8.507812 -1.285156 8.566406 -1.25 8.609375 -1.1875 C 8.660156 -1.125 8.679688 -1.054688 8.671875 -0.984375 C 8.660156 -0.910156 8.625 -0.847656 8.5625 -0.796875 C 8.34375 -0.640625 8.0625 -0.488281 7.71875 -0.34375 C 7.382812 -0.195312 7.023438 -0.0820312 6.640625 0 C 6.265625 0.09375 5.890625 0.140625 5.515625 0.140625 C 4.847656 0.140625 4.222656 0.015625 3.640625 -0.234375 C 3.066406 -0.484375 2.554688 -0.832031 2.109375 -1.28125 C 1.671875 -1.726562 1.320312 -2.253906 1.0625 -2.859375 C 0.8125 -3.460938 0.6875 -4.125 0.6875 -4.84375 C 0.6875 -5.5625 0.8125 -6.222656 1.0625 -6.828125 C 1.320312 -7.429688 1.671875 -7.957031 2.109375 -8.40625 C 2.554688 -8.851562 3.066406 -9.195312 3.640625 -9.4375 C 4.222656 -9.6875 4.847656 -9.8125 5.515625 -9.8125 C 6.078125 -9.8125 6.617188 -9.726562 7.140625 -9.5625 C 7.660156 -9.394531 8.128906 -9.164062 8.546875 -8.875 Z M 8.546875 -8.875 "/></g></g></g><g fill="#d6c6e1" fill-opacity="1"><g transform="translate(9.797251, 14.380019)"><g><path d="M 1.421875 0 C 1.335938 0 1.269531 -0.0234375 1.21875 -0.078125 C 1.164062 -0.140625 1.140625 -0.207031 1.140625 -0.28125 L 1.140625 -6.625 C 1.140625 -6.695312 1.164062 -6.757812 1.21875 -6.8125 C 1.28125 -6.875 1.347656 -6.90625 1.421875 -6.90625 C 1.503906 -6.90625 1.570312 -6.875 1.625 -6.8125 C 1.675781 -6.757812 1.703125 -6.695312 1.703125 -6.625 L 1.703125 -4.28125 L 1.46875 -3.921875 C 1.46875 -4.285156 1.53125 -4.648438 1.65625 -5.015625 C 1.78125 -5.390625 1.960938 -5.734375 2.203125 -6.046875 C 2.441406 -6.367188 2.734375 -6.628906 3.078125 -6.828125 C 3.421875 -7.023438 3.816406 -7.125 4.265625 -7.125 C 4.398438 -7.125 4.539062 -7.101562 4.6875 -7.0625 C 4.832031 -7.03125 4.90625 -6.941406 4.90625 -6.796875 C 4.90625 -6.710938 4.878906 -6.644531 4.828125 -6.59375 C 4.785156 -6.539062 4.726562 -6.515625 4.65625 -6.515625 C 4.601562 -6.515625 4.535156 -6.535156 4.453125 -6.578125 C 4.378906 -6.617188 4.269531 -6.640625 4.125 -6.640625 C 3.820312 -6.640625 3.53125 -6.550781 3.25 -6.375 C 2.96875 -6.195312 2.707031 -5.960938 2.46875 -5.671875 C 2.226562 -5.378906 2.039062 -5.0625 1.90625 -4.71875 C 1.769531 -4.382812 1.703125 -4.054688 1.703125 -3.734375 L 1.703125 -0.28125 C 1.703125 -0.207031 1.671875 -0.140625 1.609375 -0.078125 C 1.554688 -0.0234375 1.492188 0 1.421875 0 Z M 1.421875 0 "/></g></g></g><g fill="#d6c6e1" fill-opacity="1"><g transform="translate(14.582727, 14.380019)"><g><path d="M 4.265625 0.140625 C 3.566406 0.140625 2.953125 -0.00390625 2.421875 -0.296875 C 1.890625 -0.597656 1.472656 -1.015625 1.171875 -1.546875 C 0.867188 -2.085938 0.71875 -2.722656 0.71875 -3.453125 C 0.71875 -4.234375 0.867188 -4.894531 1.171875 -5.4375 C 1.472656 -5.976562 1.859375 -6.394531 2.328125 -6.6875 C 2.804688 -6.976562 3.3125 -7.125 3.84375 -7.125 C 4.226562 -7.125 4.601562 -7.0625 4.96875 -6.9375 C 5.34375 -6.8125 5.675781 -6.613281 5.96875 -6.34375 C 6.257812 -6.082031 6.492188 -5.753906 6.671875 -5.359375 C 6.847656 -4.972656 6.945312 -4.507812 6.96875 -3.96875 C 6.96875 -3.894531 6.9375 -3.828125 6.875 -3.765625 C 6.820312 -3.703125 6.757812 -3.671875 6.6875 -3.671875 L 1.046875 -3.671875 L 0.96875 -4.203125 L 6.546875 -4.203125 L 6.40625 -4.078125 L 6.40625 -4.328125 C 6.351562 -4.816406 6.195312 -5.226562 5.9375 -5.5625 C 5.675781 -5.894531 5.359375 -6.144531 4.984375 -6.3125 C 4.617188 -6.476562 4.238281 -6.5625 3.84375 -6.5625 C 3.5625 -6.5625 3.269531 -6.5 2.96875 -6.375 C 2.664062 -6.25 2.382812 -6.0625 2.125 -5.8125 C 1.875 -5.5625 1.664062 -5.238281 1.5 -4.84375 C 1.34375 -4.457031 1.265625 -4.007812 1.265625 -3.5 C 1.265625 -2.9375 1.375 -2.421875 1.59375 -1.953125 C 1.820312 -1.484375 2.160156 -1.101562 2.609375 -0.8125 C 3.054688 -0.53125 3.609375 -0.390625 4.265625 -0.390625 C 4.578125 -0.390625 4.867188 -0.441406 5.140625 -0.546875 C 5.421875 -0.648438 5.671875 -0.789062 5.890625 -0.96875 C 6.109375 -1.144531 6.289062 -1.332031 6.4375 -1.53125 C 6.507812 -1.613281 6.585938 -1.65625 6.671875 -1.65625 C 6.734375 -1.65625 6.785156 -1.628906 6.828125 -1.578125 C 6.878906 -1.523438 6.90625 -1.46875 6.90625 -1.40625 C 6.90625 -1.34375 6.882812 -1.289062 6.84375 -1.25 C 6.5625 -0.875 6.195312 -0.546875 5.75 -0.265625 C 5.300781 0.00390625 4.804688 0.140625 4.265625 0.140625 Z M 4.265625 0.140625 "/></g></g></g><g fill="#d6c6e1" fill-opacity="1"><g transform="translate(22.328093, 14.380019)"><g><path d="M 6.859375 -6.90625 C 6.941406 -6.90625 7.007812 -6.875 7.0625 -6.8125 C 7.113281 -6.757812 7.140625 -6.695312 7.140625 -6.625 L 7.140625 -0.28125 C 7.140625 -0.207031 7.109375 -0.140625 7.046875 -0.078125 C 6.992188 -0.0234375 6.929688 0 6.859375 0 C 6.773438 0 6.707031 -0.0234375 6.65625 -0.078125 C 6.601562 -0.140625 6.578125 -0.207031 6.578125 -0.28125 L 6.578125 -2.234375 L 6.796875 -2.421875 C 6.796875 -2.128906 6.722656 -1.828125 6.578125 -1.515625 C 6.429688 -1.210938 6.226562 -0.9375 5.96875 -0.6875 C 5.71875 -0.4375 5.414062 -0.234375 5.0625 -0.078125 C 4.707031 0.0664062 4.328125 0.140625 3.921875 0.140625 C 3.304688 0.140625 2.753906 -0.0195312 2.265625 -0.34375 C 1.785156 -0.664062 1.40625 -1.101562 1.125 -1.65625 C 0.851562 -2.207031 0.71875 -2.832031 0.71875 -3.53125 C 0.71875 -4.226562 0.859375 -4.84375 1.140625 -5.375 C 1.421875 -5.914062 1.800781 -6.34375 2.28125 -6.65625 C 2.769531 -6.96875 3.316406 -7.125 3.921875 -7.125 C 4.316406 -7.125 4.691406 -7.050781 5.046875 -6.90625 C 5.398438 -6.757812 5.707031 -6.554688 5.96875 -6.296875 C 6.226562 -6.046875 6.429688 -5.742188 6.578125 -5.390625 C 6.722656 -5.046875 6.796875 -4.671875 6.796875 -4.265625 L 6.578125 -4.625 L 6.578125 -6.625 C 6.578125 -6.695312 6.601562 -6.757812 6.65625 -6.8125 C 6.707031 -6.875 6.773438 -6.90625 6.859375 -6.90625 Z M 3.953125 -0.390625 C 4.472656 -0.390625 4.9375 -0.523438 5.34375 -0.796875 C 5.75 -1.066406 6.066406 -1.4375 6.296875 -1.90625 C 6.523438 -2.382812 6.640625 -2.925781 6.640625 -3.53125 C 6.640625 -4.101562 6.523438 -4.617188 6.296875 -5.078125 C 6.066406 -5.546875 5.75 -5.914062 5.34375 -6.1875 C 4.9375 -6.457031 4.472656 -6.59375 3.953125 -6.59375 C 3.441406 -6.59375 2.984375 -6.460938 2.578125 -6.203125 C 2.179688 -5.941406 1.863281 -5.578125 1.625 -5.109375 C 1.382812 -4.648438 1.265625 -4.125 1.265625 -3.53125 C 1.265625 -2.925781 1.378906 -2.382812 1.609375 -1.90625 C 1.847656 -1.4375 2.171875 -1.066406 2.578125 -0.796875 C 2.984375 -0.523438 3.441406 -0.390625 3.953125 -0.390625 Z M 3.953125 -0.390625 "/></g></g></g><g fill="#d6c6e1" fill-opacity="1"><g transform="translate(30.612862, 14.380019)"><g><path d="M 1.921875 0.1875 C 1.921875 0.414062 1.847656 0.632812 1.703125 0.84375 C 1.566406 1.050781 1.40625 1.222656 1.21875 1.359375 C 1.03125 1.492188 0.847656 1.5625 0.671875 1.5625 C 0.609375 1.5625 0.550781 1.546875 0.5 1.515625 C 0.445312 1.484375 0.421875 1.414062 0.421875 1.3125 C 0.421875 1.207031 0.457031 1.148438 0.53125 1.140625 C 0.601562 1.140625 0.710938 1.097656 0.859375 1.015625 C 1.023438 0.941406 1.148438 0.84375 1.234375 0.71875 C 1.328125 0.601562 1.375 0.46875 1.375 0.3125 C 1.375 0.1875 1.34375 0.09375 1.28125 0.03125 C 1.21875 -0.03125 1.148438 -0.0625 1.078125 -0.0625 C 1.015625 -0.0625 0.945312 -0.046875 0.875 -0.015625 C 0.8125 0.00390625 0.757812 0.03125 0.71875 0.0625 C 0.675781 0.0195312 0.644531 -0.0234375 0.625 -0.078125 C 0.601562 -0.140625 0.597656 -0.195312 0.609375 -0.25 C 0.628906 -0.363281 0.695312 -0.457031 0.8125 -0.53125 C 0.9375 -0.613281 1.070312 -0.65625 1.21875 -0.65625 C 1.414062 -0.65625 1.582031 -0.566406 1.71875 -0.390625 C 1.851562 -0.210938 1.921875 -0.0195312 1.921875 0.1875 Z M 1.921875 0.1875 "/></g></g></g><g fill="#d6c6e1" fill-opacity="1"><g transform="translate(32.92264, 14.380019)"><g/></g></g><g fill="#d6c6e1" fill-opacity="1"><g transform="translate(36.657009, 14.380019)"><g><path d="M 1.703125 -0.28125 C 1.703125 -0.207031 1.671875 -0.140625 1.609375 -0.078125 C 1.554688 -0.0234375 1.492188 0 1.421875 0 C 1.335938 0 1.269531 -0.0234375 1.21875 -0.078125 C 1.164062 -0.140625 1.140625 -0.207031 1.140625 -0.28125 L 1.140625 -6.84375 C 1.140625 -6.914062 1.164062 -6.976562 1.21875 -7.03125 C 1.28125 -7.09375 1.347656 -7.125 1.421875 -7.125 C 1.503906 -7.125 1.570312 -7.09375 1.625 -7.03125 C 1.675781 -6.976562 1.703125 -6.914062 1.703125 -6.84375 Z M 1.421875 -8.0625 C 1.273438 -8.0625 1.15625 -8.101562 1.0625 -8.1875 C 0.976562 -8.269531 0.9375 -8.375 0.9375 -8.5 L 0.9375 -8.609375 C 0.9375 -8.742188 0.984375 -8.851562 1.078125 -8.9375 C 1.171875 -9.019531 1.289062 -9.0625 1.4375 -9.0625 C 1.5625 -9.0625 1.664062 -9.019531 1.75 -8.9375 C 1.84375 -8.851562 1.890625 -8.742188 1.890625 -8.609375 L 1.890625 -8.5 C 1.890625 -8.375 1.84375 -8.269531 1.75 -8.1875 C 1.664062 -8.101562 1.554688 -8.0625 1.421875 -8.0625 Z M 1.421875 -8.0625 "/></g></g></g><g fill="#d6c6e1" fill-opacity="1"><g transform="translate(39.506194, 14.380019)"><g><path d="M 4.28125 -7.125 C 4.863281 -7.125 5.335938 -7.007812 5.703125 -6.78125 C 6.066406 -6.550781 6.332031 -6.234375 6.5 -5.828125 C 6.675781 -5.429688 6.765625 -4.992188 6.765625 -4.515625 L 6.765625 -0.28125 C 6.765625 -0.207031 6.734375 -0.140625 6.671875 -0.078125 C 6.617188 -0.0234375 6.554688 0 6.484375 0 C 6.398438 0 6.332031 -0.0234375 6.28125 -0.078125 C 6.226562 -0.140625 6.203125 -0.207031 6.203125 -0.28125 L 6.203125 -4.453125 C 6.203125 -4.847656 6.132812 -5.207031 6 -5.53125 C 5.875 -5.851562 5.664062 -6.109375 5.375 -6.296875 C 5.082031 -6.492188 4.703125 -6.59375 4.234375 -6.59375 C 3.828125 -6.59375 3.429688 -6.492188 3.046875 -6.296875 C 2.660156 -6.109375 2.335938 -5.851562 2.078125 -5.53125 C 1.828125 -5.207031 1.703125 -4.847656 1.703125 -4.453125 L 1.703125 -0.28125 C 1.703125 -0.207031 1.671875 -0.140625 1.609375 -0.078125 C 1.554688 -0.0234375 1.492188 0 1.421875 0 C 1.335938 0 1.269531 -0.0234375 1.21875 -0.078125 C 1.164062 -0.140625 1.140625 -0.207031 1.140625 -0.28125 L 1.140625 -6.625 C 1.140625 -6.695312 1.164062 -6.757812 1.21875 -6.8125 C 1.28125 -6.875 1.347656 -6.90625 1.421875 -6.90625 C 1.503906 -6.90625 1.570312 -6.875 1.625 -6.8125 C 1.675781 -6.757812 1.703125 -6.695312 1.703125 -6.625 L 1.703125 -5.265625 L 1.359375 -4.609375 C 1.359375 -4.941406 1.441406 -5.257812 1.609375 -5.5625 C 1.785156 -5.863281 2.015625 -6.128906 2.296875 -6.359375 C 2.585938 -6.597656 2.90625 -6.785156 3.25 -6.921875 C 3.601562 -7.054688 3.945312 -7.125 4.28125 -7.125 Z M 4.28125 -7.125 "/></g></g></g><g fill="#d6c6e1" fill-opacity="1"><g transform="translate(47.34836, 14.380019)"><g><path d="M 0.8125 -7.15625 C 0.863281 -7.15625 0.910156 -7.132812 0.953125 -7.09375 C 1.003906 -7.0625 1.039062 -7.019531 1.0625 -6.96875 L 3.625 -0.84375 L 3.484375 -0.75 L 6.078125 -6.96875 C 6.128906 -7.09375 6.226562 -7.15625 6.375 -7.15625 C 6.414062 -7.15625 6.46875 -7.132812 6.53125 -7.09375 C 6.601562 -7.050781 6.640625 -6.992188 6.640625 -6.921875 C 6.640625 -6.878906 6.632812 -6.847656 6.625 -6.828125 C 6.613281 -6.804688 6.601562 -6.785156 6.59375 -6.765625 L 3.84375 -0.1875 C 3.800781 -0.0625 3.710938 0 3.578125 0 C 3.523438 0 3.472656 -0.015625 3.421875 -0.046875 C 3.367188 -0.078125 3.332031 -0.125 3.3125 -0.1875 L 0.546875 -6.75 C 0.546875 -6.769531 0.539062 -6.789062 0.53125 -6.8125 C 0.53125 -6.832031 0.53125 -6.851562 0.53125 -6.875 C 0.53125 -6.945312 0.550781 -7.007812 0.59375 -7.0625 C 0.632812 -7.125 0.707031 -7.15625 0.8125 -7.15625 Z M 0.8125 -7.15625 "/></g></g></g><g fill="#d6c6e1" fill-opacity="1"><g transform="translate(54.512816, 14.380019)"><g><path d="M 1.703125 -0.28125 C 1.703125 -0.207031 1.671875 -0.140625 1.609375 -0.078125 C 1.554688 -0.0234375 1.492188 0 1.421875 0 C 1.335938 0 1.269531 -0.0234375 1.21875 -0.078125 C 1.164062 -0.140625 1.140625 -0.207031 1.140625 -0.28125 L 1.140625 -6.84375 C 1.140625 -6.914062 1.164062 -6.976562 1.21875 -7.03125 C 1.28125 -7.09375 1.347656 -7.125 1.421875 -7.125 C 1.503906 -7.125 1.570312 -7.09375 1.625 -7.03125 C 1.675781 -6.976562 1.703125 -6.914062 1.703125 -6.84375 Z M 1.421875 -8.0625 C 1.273438 -8.0625 1.15625 -8.101562 1.0625 -8.1875 C 0.976562 -8.269531 0.9375 -8.375 0.9375 -8.5 L 0.9375 -8.609375 C 0.9375 -8.742188 0.984375 -8.851562 1.078125 -8.9375 C 1.171875 -9.019531 1.289062 -9.0625 1.4375 -9.0625 C 1.5625 -9.0625 1.664062 -9.019531 1.75 -8.9375 C 1.84375 -8.851562 1.890625 -8.742188 1.890625 -8.609375 L 1.890625 -8.5 C 1.890625 -8.375 1.84375 -8.269531 1.75 -8.1875 C 1.664062 -8.101562 1.554688 -8.0625 1.421875 -8.0625 Z M 1.421875 -8.0625 "/></g></g></g><g fill="#d6c6e1" fill-opacity="1"><g transform="translate(57.361999, 14.380019)"><g><path d="M 0.515625 -6.953125 L 3.71875 -6.953125 C 3.789062 -6.953125 3.851562 -6.925781 3.90625 -6.875 C 3.957031 -6.820312 3.984375 -6.757812 3.984375 -6.6875 C 3.984375 -6.613281 3.957031 -6.550781 3.90625 -6.5 C 3.851562 -6.457031 3.789062 -6.4375 3.71875 -6.4375 L 0.515625 -6.4375 C 0.453125 -6.4375 0.390625 -6.460938 0.328125 -6.515625 C 0.273438 -6.566406 0.25 -6.625 0.25 -6.6875 C 0.25 -6.757812 0.273438 -6.820312 0.328125 -6.875 C 0.390625 -6.925781 0.453125 -6.953125 0.515625 -6.953125 Z M 1.921875 -8.984375 C 2.003906 -8.984375 2.070312 -8.957031 2.125 -8.90625 C 2.175781 -8.851562 2.203125 -8.789062 2.203125 -8.71875 L 2.203125 -1.5 C 2.203125 -1.195312 2.238281 -0.972656 2.3125 -0.828125 C 2.394531 -0.691406 2.492188 -0.601562 2.609375 -0.5625 C 2.734375 -0.519531 2.847656 -0.5 2.953125 -0.5 C 3.023438 -0.5 3.082031 -0.503906 3.125 -0.515625 C 3.164062 -0.535156 3.222656 -0.546875 3.296875 -0.546875 C 3.359375 -0.546875 3.410156 -0.519531 3.453125 -0.46875 C 3.503906 -0.425781 3.53125 -0.367188 3.53125 -0.296875 C 3.53125 -0.222656 3.472656 -0.15625 3.359375 -0.09375 C 3.253906 -0.03125 3.125 0 2.96875 0 C 2.914062 0 2.816406 0 2.671875 0 C 2.535156 -0.0078125 2.382812 -0.0507812 2.21875 -0.125 C 2.0625 -0.207031 1.925781 -0.351562 1.8125 -0.5625 C 1.695312 -0.769531 1.640625 -1.078125 1.640625 -1.484375 L 1.640625 -8.71875 C 1.640625 -8.789062 1.664062 -8.851562 1.71875 -8.90625 C 1.78125 -8.957031 1.847656 -8.984375 1.921875 -8.984375 Z M 1.921875 -8.984375 "/></g></g></g><g fill="#d6c6e1" fill-opacity="1"><g transform="translate(61.732595, 14.380019)"><g><path d="M 6.859375 -6.90625 C 6.941406 -6.90625 7.007812 -6.875 7.0625 -6.8125 C 7.113281 -6.757812 7.140625 -6.695312 7.140625 -6.625 L 7.140625 -0.28125 C 7.140625 -0.207031 7.109375 -0.140625 7.046875 -0.078125 C 6.992188 -0.0234375 6.929688 0 6.859375 0 C 6.773438 0 6.707031 -0.0234375 6.65625 -0.078125 C 6.601562 -0.140625 6.578125 -0.207031 6.578125 -0.28125 L 6.578125 -2.234375 L 6.796875 -2.421875 C 6.796875 -2.128906 6.722656 -1.828125 6.578125 -1.515625 C 6.429688 -1.210938 6.226562 -0.9375 5.96875 -0.6875 C 5.71875 -0.4375 5.414062 -0.234375 5.0625 -0.078125 C 4.707031 0.0664062 4.328125 0.140625 3.921875 0.140625 C 3.304688 0.140625 2.753906 -0.0195312 2.265625 -0.34375 C 1.785156 -0.664062 1.40625 -1.101562 1.125 -1.65625 C 0.851562 -2.207031 0.71875 -2.832031 0.71875 -3.53125 C 0.71875 -4.226562 0.859375 -4.84375 1.140625 -5.375 C 1.421875 -5.914062 1.800781 -6.34375 2.28125 -6.65625 C 2.769531 -6.96875 3.316406 -7.125 3.921875 -7.125 C 4.316406 -7.125 4.691406 -7.050781 5.046875 -6.90625 C 5.398438 -6.757812 5.707031 -6.554688 5.96875 -6.296875 C 6.226562 -6.046875 6.429688 -5.742188 6.578125 -5.390625 C 6.722656 -5.046875 6.796875 -4.671875 6.796875 -4.265625 L 6.578125 -4.625 L 6.578125 -6.625 C 6.578125 -6.695312 6.601562 -6.757812 6.65625 -6.8125 C 6.707031 -6.875 6.773438 -6.90625 6.859375 -6.90625 Z M 3.953125 -0.390625 C 4.472656 -0.390625 4.9375 -0.523438 5.34375 -0.796875 C 5.75 -1.066406 6.066406 -1.4375 6.296875 -1.90625 C 6.523438 -2.382812 6.640625 -2.925781 6.640625 -3.53125 C 6.640625 -4.101562 6.523438 -4.617188 6.296875 -5.078125 C 6.066406 -5.546875 5.75 -5.914062 5.34375 -6.1875 C 4.9375 -6.457031 4.472656 -6.59375 3.953125 -6.59375 C 3.441406 -6.59375 2.984375 -6.460938 2.578125 -6.203125 C 2.179688 -5.941406 1.863281 -5.578125 1.625 -5.109375 C 1.382812 -4.648438 1.265625 -4.125 1.265625 -3.53125 C 1.265625 -2.925781 1.378906 -2.382812 1.609375 -1.90625 C 1.847656 -1.4375 2.171875 -1.066406 2.578125 -0.796875 C 2.984375 -0.523438 3.441406 -0.390625 3.953125 -0.390625 Z M 3.953125 -0.390625 "/></g></g></g><g fill="#d6c6e1" fill-opacity="1"><g transform="translate(70.017369, 14.380019)"><g><path d="M 1.921875 0.1875 C 1.921875 0.414062 1.847656 0.632812 1.703125 0.84375 C 1.566406 1.050781 1.40625 1.222656 1.21875 1.359375 C 1.03125 1.492188 0.847656 1.5625 0.671875 1.5625 C 0.609375 1.5625 0.550781 1.546875 0.5 1.515625 C 0.445312 1.484375 0.421875 1.414062 0.421875 1.3125 C 0.421875 1.207031 0.457031 1.148438 0.53125 1.140625 C 0.601562 1.140625 0.710938 1.097656 0.859375 1.015625 C 1.023438 0.941406 1.148438 0.84375 1.234375 0.71875 C 1.328125 0.601562 1.375 0.46875 1.375 0.3125 C 1.375 0.1875 1.34375 0.09375 1.28125 0.03125 C 1.21875 -0.03125 1.148438 -0.0625 1.078125 -0.0625 C 1.015625 -0.0625 0.945312 -0.046875 0.875 -0.015625 C 0.8125 0.00390625 0.757812 0.03125 0.71875 0.0625 C 0.675781 0.0195312 0.644531 -0.0234375 0.625 -0.078125 C 0.601562 -0.140625 0.597656 -0.195312 0.609375 -0.25 C 0.628906 -0.363281 0.695312 -0.457031 0.8125 -0.53125 C 0.9375 -0.613281 1.070312 -0.65625 1.21875 -0.65625 C 1.414062 -0.65625 1.582031 -0.566406 1.71875 -0.390625 C 1.851562 -0.210938 1.921875 -0.0195312 1.921875 0.1875 Z M 1.921875 0.1875 "/></g></g></g><g fill="#d6c6e1" fill-opacity="1"><g transform="translate(72.327144, 14.380019)"><g/></g></g><g fill="#d6c6e1" fill-opacity="1"><g transform="translate(76.061513, 14.380019)"><g><path d="M 4.203125 -7.125 C 4.617188 -7.125 5.007812 -7.078125 5.375 -6.984375 C 5.738281 -6.890625 6.03125 -6.765625 6.25 -6.609375 C 6.476562 -6.460938 6.59375 -6.304688 6.59375 -6.140625 C 6.59375 -6.078125 6.566406 -6.015625 6.515625 -5.953125 C 6.460938 -5.890625 6.398438 -5.859375 6.328125 -5.859375 C 6.234375 -5.859375 6.15625 -5.882812 6.09375 -5.9375 C 6.03125 -6 5.96875 -6.066406 5.90625 -6.140625 C 5.84375 -6.222656 5.738281 -6.296875 5.59375 -6.359375 C 5.46875 -6.421875 5.285156 -6.472656 5.046875 -6.515625 C 4.816406 -6.566406 4.53125 -6.59375 4.1875 -6.59375 C 3.65625 -6.59375 3.164062 -6.453125 2.71875 -6.171875 C 2.28125 -5.898438 1.925781 -5.53125 1.65625 -5.0625 C 1.394531 -4.601562 1.265625 -4.082031 1.265625 -3.5 C 1.265625 -2.90625 1.382812 -2.375 1.625 -1.90625 C 1.875 -1.4375 2.21875 -1.066406 2.65625 -0.796875 C 3.09375 -0.523438 3.601562 -0.390625 4.1875 -0.390625 C 4.601562 -0.390625 4.921875 -0.425781 5.140625 -0.5 C 5.359375 -0.582031 5.546875 -0.671875 5.703125 -0.765625 C 5.890625 -0.867188 6.019531 -0.972656 6.09375 -1.078125 C 6.164062 -1.179688 6.253906 -1.234375 6.359375 -1.234375 C 6.429688 -1.234375 6.488281 -1.207031 6.53125 -1.15625 C 6.570312 -1.113281 6.59375 -1.054688 6.59375 -0.984375 C 6.59375 -0.867188 6.488281 -0.722656 6.28125 -0.546875 C 6.082031 -0.367188 5.800781 -0.207031 5.4375 -0.0625 C 5.070312 0.0703125 4.640625 0.140625 4.140625 0.140625 C 3.472656 0.140625 2.878906 -0.015625 2.359375 -0.328125 C 1.847656 -0.648438 1.445312 -1.085938 1.15625 -1.640625 C 0.863281 -2.191406 0.71875 -2.8125 0.71875 -3.5 C 0.71875 -4.144531 0.863281 -4.738281 1.15625 -5.28125 C 1.445312 -5.832031 1.851562 -6.273438 2.375 -6.609375 C 2.894531 -6.953125 3.503906 -7.125 4.203125 -7.125 Z M 4.203125 -7.125 "/></g></g></g><g fill="#d6c6e1" fill-opacity="1"><g transform="translate(83.212135, 14.380019)"><g><path d="M 4.265625 0.140625 C 3.566406 0.140625 2.953125 -0.00390625 2.421875 -0.296875 C 1.890625 -0.597656 1.472656 -1.015625 1.171875 -1.546875 C 0.867188 -2.085938 0.71875 -2.722656 0.71875 -3.453125 C 0.71875 -4.234375 0.867188 -4.894531 1.171875 -5.4375 C 1.472656 -5.976562 1.859375 -6.394531 2.328125 -6.6875 C 2.804688 -6.976562 3.3125 -7.125 3.84375 -7.125 C 4.226562 -7.125 4.601562 -7.0625 4.96875 -6.9375 C 5.34375 -6.8125 5.675781 -6.613281 5.96875 -6.34375 C 6.257812 -6.082031 6.492188 -5.753906 6.671875 -5.359375 C 6.847656 -4.972656 6.945312 -4.507812 6.96875 -3.96875 C 6.96875 -3.894531 6.9375 -3.828125 6.875 -3.765625 C 6.820312 -3.703125 6.757812 -3.671875 6.6875 -3.671875 L 1.046875 -3.671875 L 0.96875 -4.203125 L 6.546875 -4.203125 L 6.40625 -4.078125 L 6.40625 -4.328125 C 6.351562 -4.816406 6.195312 -5.226562 5.9375 -5.5625 C 5.675781 -5.894531 5.359375 -6.144531 4.984375 -6.3125 C 4.617188 -6.476562 4.238281 -6.5625 3.84375 -6.5625 C 3.5625 -6.5625 3.269531 -6.5 2.96875 -6.375 C 2.664062 -6.25 2.382812 -6.0625 2.125 -5.8125 C 1.875 -5.5625 1.664062 -5.238281 1.5 -4.84375 C 1.34375 -4.457031 1.265625 -4.007812 1.265625 -3.5 C 1.265625 -2.9375 1.375 -2.421875 1.59375 -1.953125 C 1.820312 -1.484375 2.160156 -1.101562 2.609375 -0.8125 C 3.054688 -0.53125 3.609375 -0.390625 4.265625 -0.390625 C 4.578125 -0.390625 4.867188 -0.441406 5.140625 -0.546875 C 5.421875 -0.648438 5.671875 -0.789062 5.890625 -0.96875 C 6.109375 -1.144531 6.289062 -1.332031 6.4375 -1.53125 C 6.507812 -1.613281 6.585938 -1.65625 6.671875 -1.65625 C 6.734375 -1.65625 6.785156 -1.628906 6.828125 -1.578125 C 6.878906 -1.523438 6.90625 -1.46875 6.90625 -1.40625 C 6.90625 -1.34375 6.882812 -1.289062 6.84375 -1.25 C 6.5625 -0.875 6.195312 -0.546875 5.75 -0.265625 C 5.300781 0.00390625 4.804688 0.140625 4.265625 0.140625 Z M 4.265625 0.140625 "/></g></g></g><g fill="#d6c6e1" fill-opacity="1"><g transform="translate(90.902176, 14.380019)"><g><path d="M 1.765625 -0.28125 C 1.765625 -0.207031 1.738281 -0.140625 1.6875 -0.078125 C 1.632812 -0.0234375 1.570312 0 1.5 0 C 1.414062 0 1.347656 -0.0234375 1.296875 -0.078125 C 1.242188 -0.140625 1.21875 -0.207031 1.21875 -0.28125 L 1.21875 -9.953125 C 1.21875 -10.023438 1.242188 -10.085938 1.296875 -10.140625 C 1.347656 -10.203125 1.414062 -10.234375 1.5 -10.234375 C 1.582031 -10.234375 1.644531 -10.203125 1.6875 -10.140625 C 1.738281 -10.085938 1.765625 -10.023438 1.765625 -9.953125 Z M 1.765625 -0.28125 "/></g></g></g><g fill="#d6c6e1" fill-opacity="1"><g transform="translate(93.751341, 14.380019)"><g><path d="M 4.265625 0.140625 C 3.566406 0.140625 2.953125 -0.00390625 2.421875 -0.296875 C 1.890625 -0.597656 1.472656 -1.015625 1.171875 -1.546875 C 0.867188 -2.085938 0.71875 -2.722656 0.71875 -3.453125 C 0.71875 -4.234375 0.867188 -4.894531 1.171875 -5.4375 C 1.472656 -5.976562 1.859375 -6.394531 2.328125 -6.6875 C 2.804688 -6.976562 3.3125 -7.125 3.84375 -7.125 C 4.226562 -7.125 4.601562 -7.0625 4.96875 -6.9375 C 5.34375 -6.8125 5.675781 -6.613281 5.96875 -6.34375 C 6.257812 -6.082031 6.492188 -5.753906 6.671875 -5.359375 C 6.847656 -4.972656 6.945312 -4.507812 6.96875 -3.96875 C 6.96875 -3.894531 6.9375 -3.828125 6.875 -3.765625 C 6.820312 -3.703125 6.757812 -3.671875 6.6875 -3.671875 L 1.046875 -3.671875 L 0.96875 -4.203125 L 6.546875 -4.203125 L 6.40625 -4.078125 L 6.40625 -4.328125 C 6.351562 -4.816406 6.195312 -5.226562 5.9375 -5.5625 C 5.675781 -5.894531 5.359375 -6.144531 4.984375 -6.3125 C 4.617188 -6.476562 4.238281 -6.5625 3.84375 -6.5625 C 3.5625 -6.5625 3.269531 -6.5 2.96875 -6.375 C 2.664062 -6.25 2.382812 -6.0625 2.125 -5.8125 C 1.875 -5.5625 1.664062 -5.238281 1.5 -4.84375 C 1.34375 -4.457031 1.265625 -4.007812 1.265625 -3.5 C 1.265625 -2.9375 1.375 -2.421875 1.59375 -1.953125 C 1.820312 -1.484375 2.160156 -1.101562 2.609375 -0.8125 C 3.054688 -0.53125 3.609375 -0.390625 4.265625 -0.390625 C 4.578125 -0.390625 4.867188 -0.441406 5.140625 -0.546875 C 5.421875 -0.648438 5.671875 -0.789062 5.890625 -0.96875 C 6.109375 -1.144531 6.289062 -1.332031 6.4375 -1.53125 C 6.507812 -1.613281 6.585938 -1.65625 6.671875 -1.65625 C 6.734375 -1.65625 6.785156 -1.628906 6.828125 -1.578125 C 6.878906 -1.523438 6.90625 -1.46875 6.90625 -1.40625 C 6.90625 -1.34375 6.882812 -1.289062 6.84375 -1.25 C 6.5625 -0.875 6.195312 -0.546875 5.75 -0.265625 C 5.300781 0.00390625 4.804688 0.140625 4.265625 0.140625 Z M 4.265625 0.140625 "/></g></g></g><g fill="#d6c6e1" fill-opacity="1"><g transform="translate(101.44137, 14.380019)"><g><path d="M 4.359375 -7.125 C 4.972656 -7.125 5.519531 -6.96875 6 -6.65625 C 6.476562 -6.34375 6.859375 -5.914062 7.140625 -5.375 C 7.421875 -4.84375 7.5625 -4.226562 7.5625 -3.53125 C 7.5625 -2.832031 7.421875 -2.207031 7.140625 -1.65625 C 6.859375 -1.101562 6.472656 -0.664062 5.984375 -0.34375 C 5.503906 -0.0195312 4.960938 0.140625 4.359375 0.140625 C 4.054688 0.140625 3.765625 0.09375 3.484375 0 C 3.203125 -0.09375 2.941406 -0.222656 2.703125 -0.390625 C 2.460938 -0.566406 2.242188 -0.773438 2.046875 -1.015625 C 1.847656 -1.253906 1.671875 -1.53125 1.515625 -1.84375 L 1.703125 -2.03125 L 1.703125 -0.28125 C 1.703125 -0.207031 1.675781 -0.140625 1.625 -0.078125 C 1.570312 -0.0234375 1.503906 0 1.421875 0 C 1.347656 0 1.28125 -0.0234375 1.21875 -0.078125 C 1.164062 -0.140625 1.140625 -0.207031 1.140625 -0.28125 L 1.140625 -9.9375 C 1.140625 -10.007812 1.164062 -10.070312 1.21875 -10.125 C 1.269531 -10.1875 1.335938 -10.21875 1.421875 -10.21875 C 1.503906 -10.21875 1.570312 -10.1875 1.625 -10.125 C 1.675781 -10.070312 1.703125 -10.007812 1.703125 -9.9375 L 1.703125 -4.9375 L 1.515625 -5.03125 C 1.648438 -5.375 1.8125 -5.671875 2 -5.921875 C 2.195312 -6.179688 2.421875 -6.398438 2.671875 -6.578125 C 2.921875 -6.753906 3.1875 -6.890625 3.46875 -6.984375 C 3.757812 -7.078125 4.054688 -7.125 4.359375 -7.125 Z M 4.328125 -6.59375 C 3.804688 -6.59375 3.34375 -6.460938 2.9375 -6.203125 C 2.539062 -5.941406 2.222656 -5.578125 1.984375 -5.109375 C 1.753906 -4.648438 1.640625 -4.125 1.640625 -3.53125 C 1.640625 -2.925781 1.753906 -2.382812 1.984375 -1.90625 C 2.222656 -1.4375 2.539062 -1.066406 2.9375 -0.796875 C 3.34375 -0.523438 3.804688 -0.390625 4.328125 -0.390625 C 4.847656 -0.390625 5.304688 -0.523438 5.703125 -0.796875 C 6.109375 -1.078125 6.425781 -1.453125 6.65625 -1.921875 C 6.894531 -2.398438 7.015625 -2.9375 7.015625 -3.53125 C 7.015625 -4.125 6.894531 -4.648438 6.65625 -5.109375 C 6.425781 -5.578125 6.109375 -5.941406 5.703125 -6.203125 C 5.304688 -6.460938 4.847656 -6.59375 4.328125 -6.59375 Z M 4.328125 -6.59375 "/></g></g></g><g fill="#d6c6e1" fill-opacity="1"><g transform="translate(109.726144, 14.380019)"><g><path d="M 1.421875 0 C 1.335938 0 1.269531 -0.0234375 1.21875 -0.078125 C 1.164062 -0.140625 1.140625 -0.207031 1.140625 -0.28125 L 1.140625 -6.625 C 1.140625 -6.695312 1.164062 -6.757812 1.21875 -6.8125 C 1.28125 -6.875 1.347656 -6.90625 1.421875 -6.90625 C 1.503906 -6.90625 1.570312 -6.875 1.625 -6.8125 C 1.675781 -6.757812 1.703125 -6.695312 1.703125 -6.625 L 1.703125 -4.28125 L 1.46875 -3.921875 C 1.46875 -4.285156 1.53125 -4.648438 1.65625 -5.015625 C 1.78125 -5.390625 1.960938 -5.734375 2.203125 -6.046875 C 2.441406 -6.367188 2.734375 -6.628906 3.078125 -6.828125 C 3.421875 -7.023438 3.816406 -7.125 4.265625 -7.125 C 4.398438 -7.125 4.539062 -7.101562 4.6875 -7.0625 C 4.832031 -7.03125 4.90625 -6.941406 4.90625 -6.796875 C 4.90625 -6.710938 4.878906 -6.644531 4.828125 -6.59375 C 4.785156 -6.539062 4.726562 -6.515625 4.65625 -6.515625 C 4.601562 -6.515625 4.535156 -6.535156 4.453125 -6.578125 C 4.378906 -6.617188 4.269531 -6.640625 4.125 -6.640625 C 3.820312 -6.640625 3.53125 -6.550781 3.25 -6.375 C 2.96875 -6.195312 2.707031 -5.960938 2.46875 -5.671875 C 2.226562 -5.378906 2.039062 -5.0625 1.90625 -4.71875 C 1.769531 -4.382812 1.703125 -4.054688 1.703125 -3.734375 L 1.703125 -0.28125 C 1.703125 -0.207031 1.671875 -0.140625 1.609375 -0.078125 C 1.554688 -0.0234375 1.492188 0 1.421875 0 Z M 1.421875 0 "/></g></g></g><g fill="#d6c6e1" fill-opacity="1"><g transform="translate(114.649949, 14.380019)"><g><path d="M 6.859375 -6.90625 C 6.941406 -6.90625 7.007812 -6.875 7.0625 -6.8125 C 7.113281 -6.757812 7.140625 -6.695312 7.140625 -6.625 L 7.140625 -0.28125 C 7.140625 -0.207031 7.109375 -0.140625 7.046875 -0.078125 C 6.992188 -0.0234375 6.929688 0 6.859375 0 C 6.773438 0 6.707031 -0.0234375 6.65625 -0.078125 C 6.601562 -0.140625 6.578125 -0.207031 6.578125 -0.28125 L 6.578125 -2.234375 L 6.796875 -2.421875 C 6.796875 -2.128906 6.722656 -1.828125 6.578125 -1.515625 C 6.429688 -1.210938 6.226562 -0.9375 5.96875 -0.6875 C 5.71875 -0.4375 5.414062 -0.234375 5.0625 -0.078125 C 4.707031 0.0664062 4.328125 0.140625 3.921875 0.140625 C 3.304688 0.140625 2.753906 -0.0195312 2.265625 -0.34375 C 1.785156 -0.664062 1.40625 -1.101562 1.125 -1.65625 C 0.851562 -2.207031 0.71875 -2.832031 0.71875 -3.53125 C 0.71875 -4.226562 0.859375 -4.84375 1.140625 -5.375 C 1.421875 -5.914062 1.800781 -6.34375 2.28125 -6.65625 C 2.769531 -6.96875 3.316406 -7.125 3.921875 -7.125 C 4.316406 -7.125 4.691406 -7.050781 5.046875 -6.90625 C 5.398438 -6.757812 5.707031 -6.554688 5.96875 -6.296875 C 6.226562 -6.046875 6.429688 -5.742188 6.578125 -5.390625 C 6.722656 -5.046875 6.796875 -4.671875 6.796875 -4.265625 L 6.578125 -4.625 L 6.578125 -6.625 C 6.578125 -6.695312 6.601562 -6.757812 6.65625 -6.8125 C 6.707031 -6.875 6.773438 -6.90625 6.859375 -6.90625 Z M 3.953125 -0.390625 C 4.472656 -0.390625 4.9375 -0.523438 5.34375 -0.796875 C 5.75 -1.066406 6.066406 -1.4375 6.296875 -1.90625 C 6.523438 -2.382812 6.640625 -2.925781 6.640625 -3.53125 C 6.640625 -4.101562 6.523438 -4.617188 6.296875 -5.078125 C 6.066406 -5.546875 5.75 -5.914062 5.34375 -6.1875 C 4.9375 -6.457031 4.472656 -6.59375 3.953125 -6.59375 C 3.441406 -6.59375 2.984375 -6.460938 2.578125 -6.203125 C 2.179688 -5.941406 1.863281 -5.578125 1.625 -5.109375 C 1.382812 -4.648438 1.265625 -4.125 1.265625 -3.53125 C 1.265625 -2.925781 1.378906 -2.382812 1.609375 -1.90625 C 1.847656 -1.4375 2.171875 -1.066406 2.578125 -0.796875 C 2.984375 -0.523438 3.441406 -0.390625 3.953125 -0.390625 Z M 3.953125 -0.390625 "/></g></g></g></g></g><g clip-path="url(#7cbed73d0b)"><g clip-path="url(#7615c4681d)"><g clip-path="url(#f8fdfd7d91)"><path fill="#d6c6e1" d="M 78.828125 137.011719 C 78.609375 136.621094 78.417969 136.539062 77.984375 136.648438 C 77.875 136.679688 77.769531 136.722656 77.664062 136.761719 C 76.535156 137.207031 75.421875 137.667969 74.304688 138.144531 C 72.136719 139.082031 69.976562 140.050781 67.902344 141.1875 C 67.277344 141.53125 66.640625 141.859375 66.007812 142.167969 C 64.511719 142.910156 63.007812 143.632812 61.613281 144.554688 C 60.640625 145.199219 59.628906 145.785156 58.691406 146.492188 C 58.382812 146.726562 58.328125 146.851562 58.453125 147.222656 C 58.597656 147.6875 58.757812 148.140625 58.945312 148.589844 C 59.550781 150.082031 60.257812 151.53125 60.957031 152.980469 C 61.863281 154.851562 62.753906 156.734375 63.847656 158.507812 C 64.15625 159.007812 64.464844 159.496094 64.84375 159.945312 C 65.226562 160.398438 65.511719 160.457031 66.054688 160.207031 C 66.664062 159.929688 67.269531 159.640625 67.863281 159.339844 C 70.203125 158.160156 72.53125 156.957031 75.222656 155.683594 C 77.296875 154.59375 79.742188 153.464844 82.082031 152.125 C 82.589844 151.835938 83.089844 151.53125 83.582031 151.222656 C 84.070312 150.914062 84.195312 150.578125 84.054688 150.019531 C 84.023438 149.910156 83.988281 149.804688 83.949219 149.695312 C 83.8125 149.261719 83.65625 148.832031 83.527344 148.394531 C 83.167969 147.195312 82.847656 145.984375 82.417969 144.800781 C 81.871094 143.300781 81.199219 141.855469 80.535156 140.402344 C 80.011719 139.25 79.453125 138.113281 78.828125 137.011719 Z M 59.75 146.820312 C 60.933594 146.078125 62.113281 145.339844 63.296875 144.597656 C 63.515625 144.460938 63.730469 144.320312 63.960938 144.210938 C 66.3125 143.054688 68.578125 141.726562 70.9375 140.574219 C 73.152344 139.492188 75.410156 138.503906 77.714844 137.617188 C 77.75 137.597656 77.792969 137.574219 77.875 137.667969 C 76.980469 139.554688 75.90625 141.367188 74.792969 143.207031 C 74.613281 142.984375 74.527344 142.753906 74.367188 142.574219 C 73.808594 141.945312 73.082031 141.789062 72.316406 142.136719 C 71.933594 142.3125 71.613281 142.574219 71.351562 142.898438 C 70.699219 143.699219 70.386719 144.636719 70.28125 145.644531 C 70.265625 145.78125 70.285156 145.929688 70.222656 146.066406 C 70.070312 146.097656 69.949219 145.996094 69.820312 145.941406 C 69.199219 145.691406 68.597656 145.40625 67.945312 145.234375 C 67.394531 145.085938 66.851562 145.09375 66.308594 145.304688 C 65.496094 145.628906 65.160156 146.339844 65.445312 147.175781 C 65.539062 147.457031 65.683594 147.710938 65.828125 147.972656 C 65.707031 148.085938 65.589844 148.042969 65.484375 148.039062 C 64.800781 147.996094 64.121094 147.925781 63.449219 147.785156 C 62.292969 147.515625 61.125 147.257812 59.9375 147.101562 C 59.816406 147.085938 59.679688 147.085938 59.585938 147.007812 C 59.585938 146.882812 59.679688 146.859375 59.75 146.820312 Z M 74.097656 144.253906 C 74.210938 144.953125 74.203125 145.644531 74.140625 146.34375 C 74.023438 147.726562 73.667969 149.066406 73.234375 150.378906 C 73.117188 150.726562 73.101562 150.746094 72.746094 150.640625 C 71.171875 150.183594 69.605469 149.703125 68.164062 148.890625 C 67.472656 148.503906 66.886719 147.992188 66.484375 147.296875 C 66.453125 147.242188 66.425781 147.195312 66.402344 147.144531 C 66.109375 146.5 66.296875 146.179688 66.996094 146.089844 C 67.394531 146.039062 67.761719 146.160156 68.125 146.285156 C 68.757812 146.511719 69.382812 146.75 70.011719 146.976562 C 70.121094 147.015625 70.226562 147.0625 70.335938 147.085938 C 70.699219 147.167969 70.957031 147.003906 71.015625 146.632812 C 71.046875 146.421875 71.039062 146.203125 71.039062 145.988281 C 71.042969 145.273438 71.210938 144.605469 71.558594 143.984375 C 71.8125 143.527344 72.140625 143.136719 72.632812 142.917969 C 73.089844 142.71875 73.464844 142.828125 73.742188 143.25 C 73.9375 143.5625 74.039062 143.902344 74.097656 144.253906 Z M 65.292969 158.925781 C 65.058594 158.816406 64.996094 158.636719 64.902344 158.488281 C 64.066406 157.148438 63.316406 155.753906 62.636719 154.328125 C 61.65625 152.289062 60.675781 150.242188 59.699219 148.203125 C 59.652344 148.09375 59.558594 147.992188 59.578125 147.859375 C 59.695312 147.777344 59.804688 147.847656 59.914062 147.867188 C 60.800781 148.039062 61.699219 148.191406 62.59375 148.390625 C 63.792969 148.660156 65.003906 148.8125 66.234375 148.804688 C 66.476562 148.804688 66.660156 148.871094 66.847656 149.027344 C 67.367188 149.476562 67.988281 149.78125 68.640625 150.082031 C 67.492188 153.046875 66.246094 155.917969 65.292969 158.925781 Z M 82.589844 150.84375 C 81.285156 151.636719 79.925781 152.332031 78.570312 153.023438 C 76.789062 153.925781 75.011719 154.828125 73.21875 155.703125 C 71.515625 156.53125 69.855469 157.445312 68.167969 158.304688 C 67.496094 158.652344 66.8125 158.964844 66.136719 159.289062 C 66.023438 159.179688 66.113281 159.09375 66.140625 159.007812 C 66.839844 157.125 67.480469 155.21875 68.261719 153.371094 C 68.609375 152.558594 68.890625 151.71875 69.199219 150.890625 C 69.242188 150.789062 69.289062 150.683594 69.332031 150.578125 C 69.378906 150.457031 69.457031 150.441406 69.574219 150.507812 C 69.796875 150.640625 70.015625 150.761719 70.234375 150.898438 C 70.699219 151.1875 71.207031 151.367188 71.746094 151.453125 C 72.113281 151.515625 72.476562 151.585938 72.839844 151.648438 C 73.398438 151.746094 73.664062 151.609375 73.878906 151.078125 C 74.214844 150.257812 74.445312 149.402344 74.664062 148.546875 C 74.707031 148.371094 74.71875 148.179688 74.828125 147.992188 C 77.464844 148.972656 80.140625 149.78125 82.792969 150.636719 C 82.78125 150.777344 82.664062 150.796875 82.589844 150.84375 Z M 81.351562 143.765625 C 82.179688 145.714844 82.675781 147.757812 83.296875 149.796875 C 83.105469 149.8125 82.992188 149.742188 82.871094 149.703125 C 80.621094 148.890625 78.351562 148.125 76.066406 147.402344 C 75.769531 147.308594 75.464844 147.226562 75.160156 147.15625 C 75 147.121094 74.957031 147.054688 74.972656 146.894531 C 75.082031 146.089844 75.132812 145.277344 75.042969 144.46875 C 75.027344 144.335938 75.078125 144.21875 75.148438 144.109375 C 75.300781 143.835938 75.449219 143.558594 75.617188 143.296875 C 76.613281 141.699219 77.507812 140.042969 78.359375 138.371094 C 78.402344 138.285156 78.453125 138.199219 78.5 138.113281 C 78.871094 138.417969 80.28125 141.242188 81.351562 143.765625 Z M 81.351562 143.765625 " fill-opacity="1" fill-rule="nonzero"/></g></g></g></svg>