<svg xmlns="http://www.w3.org/2000/svg" xmlns:xlink="http://www.w3.org/1999/xlink" width="500" zoomAndPan="magnify" viewBox="0 0 375 374.999991" height="500" preserveAspectRatio="xMidYMid meet" version="1.2"><defs/><g id="fb7fede98c"><rect x="0" width="375" y="0" height="374.999991" style="fill:#ffffff;fill-opacity:1;stroke:none;"/><rect x="0" width="375" y="0" height="374.999991" style="fill:#ffffff;fill-opacity:1;stroke:none;"/><path style=" stroke:none;fill-rule:evenodd;fill:#3f3f44;fill-opacity:1;" d="M 206.308594 80.425781 C 208.421875 80.492188 209.632812 80.734375 210.636719 81.253906 C 211.398438 81.636719 212.644531 82.5 213.402344 83.160156 C 214.164062 83.816406 215.203125 85.097656 215.722656 86.03125 C 216.242188 86.964844 216.898438 88.660156 217.175781 89.804688 C 217.488281 90.945312 217.730469 92.746094 217.730469 93.785156 C 217.730469 94.820312 217.488281 96.621094 217.210938 97.761719 C 216.898438 98.90625 215.792969 101.847656 214.753906 104.339844 C 213.613281 107.039062 211.984375 110.152344 210.671875 112.125 C 209.425781 113.925781 206.207031 118.078125 203.507812 121.296875 C 200.808594 124.515625 196.550781 129.535156 194.058594 132.371094 C 191.601562 135.246094 189.386719 137.597656 189.109375 137.667969 C 188.867188 137.703125 188 137.355469 187.207031 136.90625 C 186.375 136.457031 184.019531 134.828125 181.910156 133.304688 C 179.730469 131.75 176.546875 128.945312 174.46875 126.800781 C 172.460938 124.722656 170.074219 122.023438 169.207031 120.777344 C 168.34375 119.53125 166.925781 117.214844 166.058594 115.585938 C 165.195312 113.960938 164.019531 111.46875 163.429688 110.050781 C 162.875 108.628906 162.011719 105.828125 161.527344 103.820312 C 160.867188 101.222656 160.625 99.25 160.625 96.898438 C 160.625 95.03125 160.867188 92.710938 161.179688 91.535156 C 161.457031 90.390625 162.078125 88.765625 162.5625 87.898438 C 163.015625 87.035156 164.050781 85.648438 164.882812 84.820312 C 165.679688 83.988281 166.820312 83.089844 167.375 82.777344 C 167.929688 82.5 169.070312 82.085938 169.867188 81.84375 C 170.800781 81.601562 172.046875 81.566406 173.398438 81.738281 C 174.574219 81.878906 176.339844 82.398438 177.308594 82.882812 C 178.3125 83.367188 181.289062 85.441406 188.660156 91.359375 L 190.113281 89.734375 C 190.910156 88.800781 192.570312 87.070312 193.851562 85.824219 C 195.097656 84.578125 197.136719 83.054688 198.347656 82.398438 C 199.59375 81.738281 201.222656 80.976562 201.984375 80.734375 C 202.847656 80.460938 204.476562 80.320312 206.308594 80.425781 Z M 200.496094 85.304688 C 199.527344 85.789062 197.832031 87 196.757812 88.003906 C 195.683594 88.972656 193.816406 91.328125 192.605469 93.195312 C 191.183594 95.304688 190.113281 96.621094 189.628906 96.757812 C 189.179688 96.863281 188.453125 96.757812 187.96875 96.515625 C 187.480469 96.273438 185.476562 94.511719 183.46875 92.570312 C 181.460938 90.667969 179.210938 88.625 178.449219 88.039062 C 177.6875 87.449219 176.441406 86.652344 175.679688 86.238281 C 174.917969 85.859375 173.742188 85.441406 173.085938 85.304688 C 172.324219 85.164062 171.285156 85.234375 170.488281 85.511719 C 169.726562 85.753906 168.585938 86.445312 167.929688 87 C 167.304688 87.589844 166.40625 88.695312 165.957031 89.457031 C 165.539062 90.21875 164.917969 91.777344 164.640625 92.917969 C 164.328125 94.058594 164.085938 96 164.085938 97.246094 C 164.085938 98.523438 164.433594 100.914062 164.917969 102.78125 C 165.367188 104.582031 166.234375 107.316406 166.820312 108.839844 C 167.410156 110.359375 168.691406 112.992188 169.660156 114.722656 C 170.628906 116.453125 172.152344 118.769531 173.015625 119.914062 C 173.882812 121.054688 176.648438 123.996094 179.140625 126.488281 C 181.632812 128.980469 184.574219 131.574219 185.648438 132.304688 C 186.722656 132.996094 187.757812 133.546875 187.898438 133.515625 C 188.035156 133.445312 189.421875 131.992188 190.941406 130.296875 C 192.464844 128.601562 195.71875 124.863281 198.210938 121.988281 C 200.703125 119.152344 203.957031 115.171875 205.480469 113.164062 C 207.242188 110.84375 209.007812 107.972656 210.394531 105.203125 C 211.535156 102.816406 212.746094 99.945312 213.023438 98.800781 C 213.371094 97.589844 213.578125 95.304688 213.578125 93.367188 C 213.578125 91.082031 213.402344 89.5625 213.023438 88.695312 C 212.746094 87.96875 212.019531 86.863281 211.398438 86.238281 C 210.773438 85.582031 209.910156 84.890625 209.425781 84.648438 C 208.941406 84.40625 207.867188 84.128906 207 84.023438 C 206.136719 83.921875 204.753906 83.988281 203.886719 84.164062 C 203.023438 84.300781 201.5 84.820312 200.53125 85.304688 Z M 142.941406 131.195312 C 144.742188 131.160156 148.410156 131.332031 151.074219 131.542969 C 154.640625 131.785156 157.304688 132.269531 161.109375 133.238281 C 163.984375 133.964844 167.304688 134.96875 168.550781 135.488281 C 169.796875 135.972656 172.359375 137.183594 174.261719 138.152344 C 176.164062 139.121094 179.140625 140.851562 180.835938 141.992188 C 182.566406 143.136719 185.199219 145.109375 186.722656 146.386719 C 188.242188 147.667969 190.597656 149.882812 191.980469 151.269531 C 193.332031 152.6875 195.199219 154.765625 196.167969 155.90625 C 197.105469 157.046875 198.800781 159.402344 199.941406 161.097656 C 201.082031 162.792969 202.746094 165.527344 203.609375 167.152344 C 204.476562 168.78125 205.894531 171.722656 206.726562 173.730469 C 207.589844 175.738281 208.800781 178.851562 209.390625 180.652344 C 209.976562 182.449219 210.84375 185.425781 211.292969 187.226562 C 211.742188 189.027344 212.402344 192.382812 212.710938 194.667969 C 213.128906 197.332031 213.335938 200.792969 213.300781 204.359375 C 213.300781 208.128906 213.058594 211.382812 212.574219 214.566406 C 212.191406 217.128906 211.398438 220.796875 210.84375 222.699219 C 210.289062 224.605469 209.183594 227.789062 208.386719 229.796875 C 207.589844 231.804688 205.996094 235.054688 204.855469 237.0625 C 203.714844 239.070312 201.742188 242.117188 200.460938 243.8125 C 199.214844 245.507812 196.652344 248.414062 194.855469 250.214844 C 193.019531 252.015625 190.078125 254.609375 188.277344 255.960938 C 186.480469 257.34375 183.605469 259.246094 181.875 260.25 C 180.179688 261.253906 177.375 262.675781 175.644531 263.433594 C 173.949219 264.195312 171.355469 265.234375 169.9375 265.753906 C 168.515625 266.308594 166.023438 267.070312 164.398438 267.449219 C 162.773438 267.863281 160.210938 268.417969 158.6875 268.730469 C 157.164062 269.042969 153.359375 269.386719 150.207031 269.492188 C 146.609375 269.628906 143.148438 269.527344 140.863281 269.285156 C 138.855469 269.042969 135.742188 268.523438 133.941406 268.140625 C 132.144531 267.761719 129.132812 266.894531 127.296875 266.273438 C 125.429688 265.617188 122.382812 264.371094 120.550781 263.503906 C 118.679688 262.605469 115.910156 261.117188 114.390625 260.148438 C 112.867188 259.214844 110.445312 257.550781 109.023438 256.480469 C 107.605469 255.441406 104.800781 252.984375 102.828125 251.078125 C 100.855469 249.175781 98.363281 246.546875 97.257812 245.195312 C 96.183594 243.847656 94.351562 241.355469 93.207031 239.660156 C 92.066406 237.964844 90.199219 234.746094 89.054688 232.5625 C 87.914062 230.382812 86.355469 226.957031 85.558594 224.949219 C 84.796875 222.941406 83.621094 219.449219 82.964844 217.164062 C 82.304688 214.878906 81.40625 211.074219 81.027344 208.683594 C 80.609375 206.296875 80.195312 202.421875 80.058594 200.03125 C 79.953125 197.539062 80.023438 193.871094 80.265625 191.378906 C 80.507812 188.992188 80.992188 185.496094 81.40625 183.59375 C 81.789062 181.691406 82.652344 178.4375 83.308594 176.324219 C 83.96875 174.214844 85.492188 170.476562 86.703125 168.019531 C 87.914062 165.5625 89.921875 161.960938 91.199219 160.058594 C 92.480469 158.15625 94.660156 155.28125 96.046875 153.65625 C 97.394531 152.03125 99.679688 149.675781 101.097656 148.363281 C 102.519531 147.082031 104.835938 145.175781 106.253906 144.171875 C 107.675781 143.136719 109.855469 141.683594 111.101562 140.921875 C 112.347656 140.160156 115.117188 138.773438 117.261719 137.769531 C 119.371094 136.800781 123.285156 135.3125 125.914062 134.449219 C 128.507812 133.582031 132.695312 132.511719 135.152344 132.0625 C 137.75 131.574219 141.039062 131.195312 142.941406 131.195312 Z M 133.769531 147.289062 C 132.453125 147.632812 129.71875 148.5 127.714844 149.226562 C 125.707031 149.953125 122.523438 151.441406 120.617188 152.515625 C 118.714844 153.550781 115.980469 155.316406 114.5625 156.425781 C 113.144531 157.5 110.753906 159.714844 109.230469 161.304688 C 107.742188 162.898438 105.597656 165.632812 104.457031 167.328125 C 103.3125 169.023438 101.757812 171.6875 100.996094 173.210938 C 100.234375 174.734375 98.988281 177.777344 98.261719 179.960938 C 97.535156 182.140625 96.667969 185.425781 96.359375 187.226562 C 95.90625 189.855469 95.839844 192.070312 95.976562 198.300781 C 96.117188 205.640625 96.183594 206.296875 97.1875 209.894531 C 97.742188 212.007812 98.710938 215.121094 99.300781 216.816406 C 99.921875 218.511719 100.890625 221.003906 101.515625 222.355469 C 102.101562 223.703125 103.28125 226.023438 104.144531 227.546875 C 104.976562 229.070312 106.429688 231.386719 107.398438 232.738281 C 108.367188 234.085938 109.925781 236.058594 110.894531 237.203125 C 111.863281 238.308594 113.972656 240.386719 115.601562 241.839844 C 117.226562 243.257812 120.03125 245.402344 121.828125 246.582031 C 123.628906 247.757812 126.050781 249.210938 127.195312 249.765625 C 128.335938 250.351562 130.898438 251.355469 132.90625 252.050781 C 134.910156 252.707031 138.164062 253.605469 140.171875 254.023438 C 142.871094 254.609375 145.015625 254.78125 148.652344 254.816406 C 151.835938 254.816406 154.570312 254.609375 156.613281 254.230469 C 158.34375 253.882812 161.457031 253.050781 163.53125 252.394531 C 165.644531 251.703125 168.65625 250.527344 170.28125 249.765625 C 171.910156 249.003906 174.710938 247.410156 176.511719 246.199219 C 178.3125 245.023438 181.21875 242.671875 182.914062 240.972656 C 184.644531 239.277344 186.824219 236.820312 187.828125 235.507812 C 188.832031 234.15625 190.25 232.011719 191.046875 230.660156 C 191.808594 229.3125 192.949219 226.992188 193.609375 225.46875 C 194.265625 223.945312 195.199219 221.386719 195.683594 219.757812 C 196.132812 218.132812 196.757812 215.398438 197.070312 213.703125 C 197.414062 211.695312 197.621094 208.546875 197.621094 204.878906 C 197.621094 201.695312 197.414062 197.714844 197.136719 195.878906 C 196.859375 194.078125 196.066406 190.722656 195.375 188.4375 C 194.679688 186.152344 193.402344 182.589844 192.535156 180.476562 C 191.703125 178.367188 190.214844 175.253906 189.246094 173.554688 C 188.277344 171.859375 186.410156 168.953125 185.058594 167.152344 C 183.710938 165.355469 181.289062 162.550781 179.660156 160.925781 C 178.035156 159.296875 175.507812 157.082031 174.089844 156.042969 C 172.667969 154.972656 170.558594 153.550781 169.417969 152.859375 C 168.273438 152.167969 165.78125 150.886719 163.878906 150.058594 C 161.976562 149.226562 158.480469 148.050781 156.09375 147.425781 C 152.214844 146.421875 151.144531 146.320312 145.882812 146.214844 C 142.628906 146.144531 139.132812 146.214844 138.097656 146.386719 C 137.058594 146.597656 135.121094 146.976562 133.769531 147.289062 Z M 217.003906 139.15625 C 218.25 139.15625 221.296875 139.292969 223.753906 139.46875 C 226.210938 139.675781 229.808594 140.160156 231.710938 140.503906 C 233.617188 140.886719 236.972656 141.785156 239.152344 142.511719 C 241.332031 143.273438 244.515625 144.484375 246.246094 145.246094 C 247.976562 145.972656 250.921875 147.496094 252.824219 148.636719 C 254.726562 149.746094 257.773438 151.753906 259.574219 153.101562 C 261.371094 154.453125 264.488281 157.1875 266.492188 159.195312 C 268.535156 161.199219 271.132812 164.074219 272.273438 165.597656 C 273.414062 167.121094 275.113281 169.542969 276.046875 170.960938 C 276.980469 172.378906 278.640625 175.253906 279.679688 177.363281 C 280.753906 179.472656 282.066406 182.242188 282.585938 183.59375 C 283.105469 184.941406 283.902344 187.261719 284.386719 188.785156 C 284.835938 190.308594 285.632812 193.351562 286.152344 195.53125 C 287.015625 199.339844 287.050781 199.929688 287.050781 209.03125 C 287.050781 218.167969 287.015625 218.722656 286.117188 222.699219 C 285.597656 224.984375 284.628906 228.550781 283.9375 230.660156 C 283.246094 232.773438 281.6875 236.507812 280.511719 238.96875 C 279.300781 241.425781 277.429688 244.886719 276.289062 246.582031 C 275.144531 248.277344 272.929688 251.320312 271.304688 253.296875 C 269.710938 255.300781 266.910156 258.242188 265.109375 259.835938 C 263.308594 261.460938 260.507812 263.710938 258.878906 264.890625 C 257.253906 266.03125 254.554688 267.796875 252.824219 268.765625 C 251.09375 269.734375 248.324219 271.152344 246.59375 271.914062 C 244.863281 272.710938 241.851562 273.886719 239.84375 274.613281 C 237.839844 275.304688 234.34375 276.34375 232.058594 276.898438 C 228.632812 277.761719 226.796875 278.003906 221.675781 278.246094 C 218.214844 278.386719 213.507812 278.386719 211.121094 278.214844 C 208.179688 278.003906 205.304688 277.554688 202.121094 276.757812 C 199.5625 276.101562 195.648438 274.855469 193.46875 273.992188 C 191.289062 273.160156 188 271.707031 186.203125 270.808594 C 184.402344 269.90625 182.535156 268.902344 181.289062 268.039062 L 184.992188 266.238281 L 188.96875 268.28125 C 191.152344 269.386719 194.886719 270.945312 197.277344 271.707031 C 199.664062 272.46875 203.089844 273.4375 204.890625 273.816406 C 207.484375 274.40625 209.804688 274.578125 215.964844 274.71875 C 222.195312 274.820312 224.511719 274.753906 227.558594 274.269531 C 229.671875 273.957031 232.75 273.296875 234.480469 272.847656 C 236.210938 272.398438 238.910156 271.566406 240.539062 270.980469 C 242.164062 270.390625 245.210938 269.042969 247.285156 267.96875 C 249.363281 266.929688 251.957031 265.511719 252.996094 264.820312 C 254.035156 264.160156 256.214844 262.605469 257.84375 261.324219 C 259.433594 260.078125 262.410156 257.414062 264.453125 255.40625 C 266.460938 253.398438 269.261719 250.214844 270.683594 248.3125 C 272.101562 246.40625 274.039062 243.429688 275.007812 241.734375 C 275.976562 240.039062 277.394531 237.203125 278.15625 235.507812 C 278.953125 233.808594 279.957031 231.144531 280.476562 229.621094 C 280.960938 228.101562 281.792969 225.226562 282.277344 223.21875 C 283.175781 219.792969 283.210938 219.03125 283.347656 209.894531 C 283.488281 201.035156 283.417969 199.894531 282.761719 196.746094 C 282.378906 194.839844 281.617188 191.863281 281.132812 190.167969 C 280.648438 188.472656 279.542969 185.425781 278.710938 183.421875 C 277.878906 181.414062 276.460938 178.472656 275.597656 176.84375 C 274.730469 175.21875 272.828125 172.277344 271.375 170.269531 C 269.921875 168.261719 267.117188 164.9375 265.109375 162.863281 C 263.101562 160.785156 260.230469 158.15625 258.707031 156.980469 C 257.183594 155.800781 254.691406 154.039062 253.167969 153.101562 C 251.648438 152.132812 249.707031 150.957031 248.84375 150.472656 C 247.976562 149.988281 245.554688 148.878906 243.480469 148.015625 C 241.402344 147.148438 238.355469 146.042969 236.730469 145.558594 C 235.105469 145.074219 232.230469 144.347656 230.328125 143.929688 C 227.59375 143.34375 225.273438 143.136719 219.425781 142.996094 C 214.925781 142.929688 210.808594 142.996094 209.042969 143.238281 C 207.417969 143.445312 203.921875 144.140625 196.410156 146.007812 L 193.78125 143.445312 L 196.308594 142.683594 C 197.691406 142.234375 200.875 141.441406 203.332031 140.851562 C 205.789062 140.296875 209.390625 139.675781 211.292969 139.535156 C 213.195312 139.363281 215.757812 139.191406 217.003906 139.15625 Z M 217.695312 150.058594 C 219.496094 150.160156 222.296875 150.367188 223.925781 150.578125 C 225.550781 150.75 228.492188 151.304688 230.5 151.789062 C 232.507812 152.273438 235.691406 153.277344 237.597656 154.003906 C 239.5 154.765625 242.785156 156.390625 244.863281 157.636719 C 246.941406 158.882812 249.675781 160.648438 250.921875 161.582031 C 252.164062 162.515625 254.382812 164.417969 255.902344 165.804688 C 257.390625 167.222656 259.675781 169.679688 260.957031 171.308594 C 262.238281 172.933594 264.140625 175.667969 265.179688 177.363281 C 266.25 179.058594 267.636719 181.722656 268.292969 183.246094 C 268.984375 184.769531 269.988281 187.503906 270.578125 189.304688 C 271.167969 191.101562 271.996094 194.390625 272.410156 196.570312 C 273.105469 199.996094 273.207031 201.660156 273.207031 208.339844 C 273.242188 215.988281 273.207031 216.195312 272.136719 220.453125 C 271.511719 222.839844 270.4375 226.195312 269.78125 227.890625 C 269.089844 229.589844 267.949219 232.011719 267.289062 233.257812 C 266.597656 234.503906 265.25 236.683594 264.277344 238.101562 C 263.308594 239.519531 261.269531 242.183594 259.675781 243.984375 C 258.117188 245.785156 255.871094 248.136719 254.65625 249.175781 C 253.445312 250.25 251.542969 251.808594 250.402344 252.707031 C 249.257812 253.570312 247.25 254.957031 245.902344 255.753906 C 244.550781 256.582031 242.164062 257.898438 240.539062 258.726562 C 238.910156 259.523438 235.96875 260.734375 233.960938 261.429688 C 231.953125 262.085938 229.082031 262.882812 227.558594 263.191406 C 225.550781 263.609375 222.816406 263.746094 217.695312 263.78125 C 213.679688 263.78125 209.632812 263.609375 208.351562 263.367188 C 207.105469 263.160156 204.476562 262.570312 202.46875 262.085938 C 200.460938 261.601562 197.96875 260.839844 195.027344 259.523438 L 197.589844 256.964844 L 200.632812 257.933594 C 202.292969 258.453125 204.753906 259.109375 206.101562 259.421875 C 207.453125 259.699219 211.015625 260.042969 214.0625 260.148438 C 217.558594 260.285156 220.878906 260.183594 223.058594 259.941406 C 224.964844 259.699219 228.007812 259.144531 229.808594 258.695312 C 231.609375 258.242188 234.652344 257.207031 236.558594 256.445312 C 238.460938 255.648438 241.265625 254.367188 242.785156 253.539062 C 244.308594 252.707031 246.871094 251.046875 248.496094 249.835938 C 250.125 248.65625 252.925781 246.199219 254.726562 244.367188 C 256.664062 242.394531 259.054688 239.484375 260.574219 237.238281 C 261.960938 235.125 263.863281 231.871094 264.761719 229.96875 C 265.664062 228.066406 266.804688 225.261719 267.324219 223.738281 C 267.808594 222.214844 268.570312 219.414062 268.984375 217.507812 C 269.644531 214.566406 269.746094 213.011719 269.746094 207.125 C 269.746094 201.9375 269.574219 199.445312 269.125 197.089844 C 268.777344 195.394531 267.980469 192.347656 267.324219 190.339844 C 266.632812 188.335938 265.421875 185.289062 264.589844 183.59375 C 263.761719 181.898438 262.132812 178.988281 260.921875 177.191406 C 259.46875 174.976562 257.425781 172.554688 254.589844 169.75 C 252.097656 167.257812 249.15625 164.765625 247.285156 163.519531 C 245.554688 162.378906 242.613281 160.648438 240.710938 159.714844 C 238.808594 158.742188 235.933594 157.464844 234.308594 156.875 C 232.679688 156.285156 229.496094 155.316406 227.214844 154.730469 C 223.234375 153.691406 222.785156 153.65625 216.136719 153.65625 C 211.398438 153.65625 208.558594 153.828125 207.140625 154.140625 C 205.996094 154.417969 204.785156 154.730469 204.476562 154.832031 C 204.023438 154.972656 203.574219 154.660156 202.917969 153.621094 C 202.085938 152.445312 202.019531 152.167969 202.46875 151.925781 C 202.746094 151.753906 204.40625 151.371094 206.101562 151.0625 C 207.832031 150.75 210.394531 150.367188 211.8125 150.195312 C 213.230469 150.023438 215.894531 149.988281 217.695312 150.058594 Z M 168.378906 159.886719 C 168.65625 159.886719 169.417969 160.300781 170.039062 160.820312 C 170.628906 161.339844 171.214844 161.789062 171.320312 161.859375 C 171.425781 161.894531 170.246094 163.242188 168.722656 164.835938 C 167.203125 166.425781 164.917969 169.195312 163.636719 170.996094 C 162.355469 172.796875 160.140625 176.601562 158.722656 179.441406 C 157.304688 182.3125 155.574219 186.257812 154.914062 188.265625 C 154.257812 190.273438 153.394531 193.527344 152.976562 195.53125 C 152.5625 197.539062 152.113281 201.207031 152.007812 203.667969 C 151.871094 206.125 151.871094 210.519531 152.007812 213.355469 C 152.148438 216.992188 152.492188 219.792969 153.152344 222.699219 C 153.667969 224.984375 154.636719 228.410156 155.296875 230.316406 C 155.953125 232.21875 157.097656 235.023438 157.824219 236.542969 C 158.550781 238.066406 159.96875 240.628906 160.9375 242.253906 C 161.941406 243.882812 162.804688 245.402344 162.875 245.644531 C 162.945312 245.886719 162.355469 246.269531 161.386719 246.582031 C 160.453125 246.859375 159.519531 247.101562 159.3125 247.101562 C 159.070312 247.101562 157.71875 244.816406 156.300781 242.011719 C 154.914062 239.175781 153.183594 235.332031 152.457031 233.429688 C 151.765625 231.527344 150.796875 228.550781 150.347656 226.855469 C 149.898438 225.15625 149.207031 221.871094 148.824219 219.585938 C 148.304688 216.507812 148.132812 213.773438 148.132812 209.03125 C 148.132812 205.5 148.304688 201.3125 148.511719 199.6875 C 148.6875 198.058594 149.308594 194.875 149.863281 192.589844 C 150.417969 190.308594 151.351562 187.019531 151.9375 185.324219 C 152.5625 183.628906 154.015625 180.269531 155.191406 177.882812 C 156.402344 175.496094 158.097656 172.378906 159.035156 170.960938 C 159.933594 169.542969 161.664062 167.121094 162.839844 165.597656 C 164.019531 164.074219 165.644531 162.171875 166.441406 161.375 C 167.203125 160.542969 168.101562 159.886719 168.378906 159.886719 Z M 176.371094 166.808594 C 176.648438 166.808594 177.238281 167.292969 177.722656 167.847656 C 178.207031 168.398438 178.589844 169.09375 178.589844 169.335938 C 178.589844 169.542969 177.480469 170.996094 176.128906 172.519531 C 174.78125 174.039062 172.84375 176.53125 171.839844 178.054688 C 170.800781 179.578125 169.277344 182.3125 168.414062 184.113281 C 167.582031 185.910156 166.441406 188.714844 165.921875 190.339844 C 165.402344 191.96875 164.710938 194.703125 164.328125 196.398438 C 163.949219 198.265625 163.601562 201.660156 163.464844 204.878906 C 163.359375 207.992188 163.429688 211.625 163.636719 213.53125 C 163.84375 215.328125 164.503906 218.617188 165.054688 220.796875 C 165.609375 222.976562 166.542969 225.953125 167.132812 227.371094 C 167.722656 228.792969 168.933594 231.179688 169.867188 232.667969 C 170.765625 234.191406 172.21875 236.335938 173.15625 237.445312 C 174.054688 238.550781 174.78125 239.554688 174.78125 239.660156 C 174.78125 239.761719 174.125 240.316406 173.328125 240.871094 C 172.496094 241.457031 171.699219 241.910156 171.492188 241.910156 C 171.285156 241.910156 170.28125 240.558594 169.207031 238.863281 C 168.136719 237.203125 166.578125 234.535156 165.78125 232.910156 C 164.953125 231.285156 163.808594 228.652344 163.152344 227.027344 C 162.53125 225.398438 161.628906 222.527344 161.179688 220.625 C 160.695312 218.722656 160.105469 215.605469 159.863281 213.703125 C 159.585938 211.488281 159.519531 208.234375 159.65625 204.703125 C 159.796875 201.105469 160.140625 197.957031 160.589844 195.707031 C 161.007812 193.800781 161.734375 191 162.21875 189.476562 C 162.703125 187.953125 163.601562 185.53125 164.261719 184.113281 C 164.882812 182.691406 166.09375 180.269531 166.925781 178.746094 C 167.789062 177.226562 169.453125 174.664062 170.664062 173.039062 C 171.839844 171.410156 173.535156 169.367188 174.367188 168.433594 C 175.230469 167.535156 176.128906 166.808594 176.371094 166.808594 Z M 176.371094 166.808594 "/><g style="fill:#3f3f44;fill-opacity:1;"><g transform="translate(69.585177, 179.178965)"><path style="stroke:none" d="M -12.859375 -12.953125 C -12.660156 -13.566406 -12.390625 -14.144531 -12.046875 -14.6875 C -11.710938 -15.226562 -11.316406 -15.679688 -10.859375 -16.046875 C -10.429688 -16.398438 -9.988281 -16.628906 -9.53125 -16.734375 C -9.082031 -16.847656 -8.632812 -16.832031 -8.1875 -16.6875 C -7.675781 -16.53125 -7.320312 -16.265625 -7.125 -15.890625 C -6.925781 -15.515625 -6.898438 -15.101562 -7.046875 -14.65625 C -7.171875 -14.226562 -7.410156 -13.890625 -7.765625 -13.640625 C -8.128906 -13.398438 -8.546875 -13.351562 -9.015625 -13.5 C -9.453125 -13.632812 -9.765625 -13.867188 -9.953125 -14.203125 C -10.148438 -14.535156 -10.238281 -14.875 -10.21875 -15.21875 C -10.625 -15.144531 -11.019531 -14.894531 -11.40625 -14.46875 C -11.800781 -14.050781 -12.085938 -13.5625 -12.265625 -13 C -12.410156 -12.519531 -12.441406 -12 -12.359375 -11.4375 C -12.285156 -10.875 -12.046875 -10.304688 -11.640625 -9.734375 C -11.234375 -9.160156 -10.609375 -8.597656 -9.765625 -8.046875 C -8.921875 -7.503906 -7.804688 -7.015625 -6.421875 -6.578125 C -4.722656 -6.046875 -3.304688 -5.816406 -2.171875 -5.890625 C -1.046875 -5.960938 -0.164062 -6.242188 0.46875 -6.734375 C 1.101562 -7.234375 1.539062 -7.863281 1.78125 -8.625 C 1.9375 -9.125 2 -9.664062 1.96875 -10.25 C 1.9375 -10.84375 1.769531 -11.4375 1.46875 -12.03125 C 1.175781 -12.632812 0.722656 -13.21875 0.109375 -13.78125 L 0.484375 -14.28125 C 1.035156 -13.882812 1.554688 -13.363281 2.046875 -12.71875 C 2.546875 -12.070312 2.882812 -11.328125 3.0625 -10.484375 C 3.25 -9.640625 3.175781 -8.691406 2.84375 -7.640625 C 2.46875 -6.441406 1.8125 -5.453125 0.875 -4.671875 C -0.0507812 -3.898438 -1.175781 -3.410156 -2.5 -3.203125 C -3.832031 -2.992188 -5.296875 -3.140625 -6.890625 -3.640625 C -8.472656 -4.140625 -9.78125 -4.863281 -10.8125 -5.8125 C -11.851562 -6.769531 -12.554688 -7.867188 -12.921875 -9.109375 C -13.296875 -10.347656 -13.273438 -11.628906 -12.859375 -12.953125 Z M -12.859375 -12.953125 "/></g></g><g style="fill:#3f3f44;fill-opacity:1;"><g transform="translate(73.650776, 166.573366)"><path style="stroke:none" d="M -19.109375 -15.5 L -0.09375 -6.40625 C 0.675781 -6.03125 1.273438 -5.9375 1.703125 -6.125 C 2.140625 -6.320312 2.539062 -6.796875 2.90625 -7.546875 L 3.484375 -7.265625 C 3.304688 -6.960938 3.050781 -6.5 2.71875 -5.875 C 2.394531 -5.257812 2.078125 -4.628906 1.765625 -3.984375 C 1.472656 -3.359375 1.1875 -2.71875 0.90625 -2.0625 C 0.625 -1.414062 0.421875 -0.929688 0.296875 -0.609375 L -0.28125 -0.890625 C 0.0703125 -1.640625 0.1875 -2.238281 0.0625 -2.6875 C -0.0625 -3.132812 -0.507812 -3.546875 -1.28125 -3.921875 L -17 -11.4375 C -17.820312 -11.832031 -18.5 -11.976562 -19.03125 -11.875 C -19.5625 -11.769531 -20.019531 -11.316406 -20.40625 -10.515625 L -20.984375 -10.796875 C -20.660156 -11.347656 -20.363281 -11.898438 -20.09375 -12.453125 C -19.84375 -12.984375 -19.628906 -13.503906 -19.453125 -14.015625 C -19.273438 -14.535156 -19.160156 -15.03125 -19.109375 -15.5 Z M -19.109375 -15.5 "/></g></g><g style="fill:#3f3f44;fill-opacity:1;"><g transform="translate(76.843895, 159.73953)"><path style="stroke:none" d="M -17.5625 -15.96875 C -17.289062 -16.425781 -16.890625 -16.71875 -16.359375 -16.84375 C -15.828125 -16.96875 -15.335938 -16.890625 -14.890625 -16.609375 C -14.429688 -16.335938 -14.140625 -15.9375 -14.015625 -15.40625 C -13.890625 -14.875 -13.960938 -14.378906 -14.234375 -13.921875 C -14.515625 -13.484375 -14.921875 -13.195312 -15.453125 -13.0625 C -15.984375 -12.9375 -16.476562 -13.007812 -16.9375 -13.28125 C -17.382812 -13.5625 -17.671875 -13.96875 -17.796875 -14.5 C -17.921875 -15.039062 -17.84375 -15.53125 -17.5625 -15.96875 Z M -10.53125 -13.5 L 0.703125 -6.5625 C 1.429688 -6.113281 2.019531 -5.957031 2.46875 -6.09375 C 2.914062 -6.238281 3.359375 -6.664062 3.796875 -7.375 L 4.34375 -7.03125 C 4.144531 -6.75 3.847656 -6.316406 3.453125 -5.734375 C 3.054688 -5.148438 2.671875 -4.554688 2.296875 -3.953125 C 1.929688 -3.367188 1.570312 -2.765625 1.21875 -2.140625 C 0.875 -1.523438 0.625 -1.0625 0.46875 -0.75 L -0.078125 -1.09375 C 0.359375 -1.8125 0.539062 -2.398438 0.46875 -2.859375 C 0.394531 -3.316406 -0.00390625 -3.769531 -0.734375 -4.21875 L -8.859375 -9.234375 C -9.640625 -9.710938 -10.300781 -9.929688 -10.84375 -9.890625 C -11.382812 -9.847656 -11.890625 -9.441406 -12.359375 -8.671875 L -12.90625 -9.015625 C -12.507812 -9.523438 -12.148438 -10.039062 -11.828125 -10.5625 C -11.523438 -11.0625 -11.257812 -11.5625 -11.03125 -12.0625 C -10.8125 -12.570312 -10.644531 -13.050781 -10.53125 -13.5 Z M -10.53125 -13.5 "/></g></g><g style="fill:#3f3f44;fill-opacity:1;"><g transform="translate(80.441848, 153.294767)"><path style="stroke:none" d="M -6.90625 -16.890625 C -6.488281 -17.378906 -6.019531 -17.804688 -5.5 -18.171875 C -4.988281 -18.546875 -4.457031 -18.8125 -3.90625 -18.96875 C -3.363281 -19.132812 -2.859375 -19.179688 -2.390625 -19.109375 C -1.929688 -19.046875 -1.523438 -18.863281 -1.171875 -18.5625 C -0.753906 -18.21875 -0.523438 -17.832031 -0.484375 -17.40625 C -0.453125 -16.976562 -0.585938 -16.585938 -0.890625 -16.234375 C -1.179688 -15.890625 -1.535156 -15.671875 -1.953125 -15.578125 C -2.367188 -15.492188 -2.765625 -15.609375 -3.140625 -15.921875 C -3.492188 -16.222656 -3.695312 -16.5625 -3.75 -16.9375 C -3.8125 -17.3125 -3.765625 -17.660156 -3.609375 -17.984375 C -4.015625 -18.054688 -4.476562 -17.972656 -5 -17.734375 C -5.519531 -17.503906 -5.96875 -17.164062 -6.34375 -16.71875 C -6.675781 -16.320312 -6.910156 -15.847656 -7.046875 -15.296875 C -7.191406 -14.742188 -7.1875 -14.125 -7.03125 -13.4375 C -6.875 -12.757812 -6.507812 -12.003906 -5.9375 -11.171875 C -5.375 -10.347656 -4.535156 -9.472656 -3.421875 -8.546875 C -2.054688 -7.398438 -0.835938 -6.644531 0.234375 -6.28125 C 1.304688 -5.914062 2.226562 -5.835938 3 -6.046875 C 3.78125 -6.265625 4.425781 -6.679688 4.9375 -7.296875 C 5.269531 -7.691406 5.535156 -8.164062 5.734375 -8.71875 C 5.929688 -9.28125 6.007812 -9.890625 5.96875 -10.546875 C 5.9375 -11.210938 5.738281 -11.929688 5.375 -12.703125 L 5.921875 -13.015625 C 6.273438 -12.429688 6.554688 -11.742188 6.765625 -10.953125 C 6.972656 -10.171875 7 -9.359375 6.84375 -8.515625 C 6.6875 -7.671875 6.253906 -6.820312 5.546875 -5.96875 C 4.742188 -5.007812 3.765625 -4.347656 2.609375 -3.984375 C 1.460938 -3.617188 0.234375 -3.59375 -1.078125 -3.90625 C -2.390625 -4.226562 -3.6875 -4.925781 -4.96875 -6 C -6.238281 -7.0625 -7.164062 -8.226562 -7.75 -9.5 C -8.34375 -10.78125 -8.570312 -12.066406 -8.4375 -13.359375 C -8.3125 -14.648438 -7.800781 -15.828125 -6.90625 -16.890625 Z M -6.90625 -16.890625 "/></g></g><g style="fill:#3f3f44;fill-opacity:1;"><g transform="translate(88.409105, 143.322556)"><path style="stroke:none" d="M -10.6875 -22.140625 L 2.609375 -5.78125 C 3.148438 -5.125 3.632812 -4.769531 4.0625 -4.71875 C 4.488281 -4.675781 4.988281 -4.882812 5.5625 -5.34375 L 5.96875 -4.84375 C 5.707031 -4.664062 5.316406 -4.382812 4.796875 -4 C 4.273438 -3.613281 3.757812 -3.210938 3.25 -2.796875 C 2.71875 -2.367188 2.1875 -1.914062 1.65625 -1.4375 C 1.125 -0.96875 0.726562 -0.617188 0.46875 -0.390625 L 0.0625 -0.890625 C 0.707031 -1.410156 1.070312 -1.898438 1.15625 -2.359375 C 1.238281 -2.828125 1.007812 -3.390625 0.46875 -4.046875 L -10.515625 -17.5625 C -11.097656 -18.28125 -11.648438 -18.707031 -12.171875 -18.84375 C -12.703125 -18.976562 -13.316406 -18.765625 -14.015625 -18.203125 L -14.421875 -18.703125 C -13.867188 -19.054688 -13.359375 -19.425781 -12.890625 -19.8125 C -12.429688 -20.1875 -12.015625 -20.566406 -11.640625 -20.953125 C -11.265625 -21.347656 -10.945312 -21.742188 -10.6875 -22.140625 Z M 2 -21.90625 L 2.390625 -21.421875 C 2.023438 -21.066406 1.742188 -20.65625 1.546875 -20.1875 C 1.359375 -19.726562 1.238281 -19.191406 1.1875 -18.578125 L 0.6875 -12.359375 L 0.484375 -13.296875 L 9.796875 -10.84375 C 10.359375 -10.695312 10.84375 -10.617188 11.25 -10.609375 C 11.664062 -10.597656 12.0625 -10.710938 12.4375 -10.953125 L 12.84375 -10.453125 C 12.664062 -10.328125 12.378906 -10.125 11.984375 -9.84375 C 11.597656 -9.5625 11.222656 -9.273438 10.859375 -8.984375 C 10.367188 -8.585938 9.878906 -8.171875 9.390625 -7.734375 C 8.910156 -7.304688 8.550781 -6.984375 8.3125 -6.765625 L 7.90625 -7.265625 C 8.226562 -7.515625 8.390625 -7.769531 8.390625 -8.03125 C 8.390625 -8.289062 8.210938 -8.457031 7.859375 -8.53125 L 1.890625 -10.3125 C 1.242188 -10.488281 0.75 -10.539062 0.40625 -10.46875 C 0.0625 -10.394531 -0.351562 -10.175781 -0.84375 -9.8125 L -1.234375 -10.296875 C -0.765625 -10.773438 -0.429688 -11.210938 -0.234375 -11.609375 C -0.046875 -12.015625 0.0625 -12.488281 0.09375 -13.03125 L 0.390625 -16.265625 C 0.460938 -17.203125 0.375 -17.828125 0.125 -18.140625 C -0.125 -18.453125 -0.460938 -18.539062 -0.890625 -18.40625 C -1.328125 -18.269531 -1.804688 -17.992188 -2.328125 -17.578125 L -2.71875 -18.0625 C -2.289062 -18.363281 -1.8125 -18.707031 -1.28125 -19.09375 C -0.757812 -19.488281 -0.320312 -19.828125 0.03125 -20.109375 C 0.300781 -20.335938 0.554688 -20.554688 0.796875 -20.765625 C 1.046875 -20.984375 1.273438 -21.191406 1.484375 -21.390625 C 1.703125 -21.585938 1.875 -21.757812 2 -21.90625 Z M 2 -21.90625 "/></g></g><g style="fill:#3f3f44;fill-opacity:1;"><g transform="translate(100.289599, 133.942905)"><path style="stroke:none" d=""/></g></g><g style="fill:#3f3f44;fill-opacity:1;"><g transform="translate(105.689209, 130.559098)"><path style="stroke:none" d="M -3.265625 -21.328125 L -1.171875 -16.6875 L 2.953125 -18.53125 L 3.203125 -17.984375 L -0.921875 -16.140625 L 3.9375 -5.359375 C 4.332031 -4.492188 4.765625 -3.953125 5.234375 -3.734375 C 5.703125 -3.523438 6.21875 -3.546875 6.78125 -3.796875 C 7.34375 -4.046875 7.722656 -4.492188 7.921875 -5.140625 C 8.128906 -5.785156 8.140625 -6.707031 7.953125 -7.90625 L 8.5625 -8.015625 C 8.863281 -6.859375 8.90625 -5.785156 8.6875 -4.796875 C 8.476562 -3.804688 7.8125 -3.054688 6.6875 -2.546875 C 6.050781 -2.265625 5.492188 -2.109375 5.015625 -2.078125 C 4.546875 -2.046875 4.082031 -2.109375 3.625 -2.265625 C 3.03125 -2.515625 2.519531 -2.898438 2.09375 -3.421875 C 1.664062 -3.941406 1.226562 -4.691406 0.78125 -5.671875 L -3.421875 -15 L -6.09375 -13.796875 L -6.34375 -14.34375 L -3.671875 -15.546875 L -5.59375 -19.8125 C -5.144531 -20.03125 -4.71875 -20.257812 -4.3125 -20.5 C -3.90625 -20.75 -3.554688 -21.023438 -3.265625 -21.328125 Z M -3.265625 -21.328125 "/></g></g><g style="fill:#3f3f44;fill-opacity:1;"><g transform="translate(113.72855, 126.492289)"><path style="stroke:none" d="M 3.96875 -17.734375 C 5.226562 -18.066406 6.429688 -18.09375 7.578125 -17.8125 C 8.734375 -17.53125 9.765625 -16.875 10.671875 -15.84375 C 11.585938 -14.8125 12.289062 -13.351562 12.78125 -11.46875 C 13.28125 -9.582031 13.382812 -7.972656 13.09375 -6.640625 C 12.800781 -5.316406 12.222656 -4.25 11.359375 -3.4375 C 10.503906 -2.625 9.445312 -2.050781 8.1875 -1.71875 C 6.945312 -1.394531 5.75 -1.375 4.59375 -1.65625 C 3.4375 -1.9375 2.40625 -2.582031 1.5 -3.59375 C 0.59375 -4.601562 -0.109375 -6.050781 -0.609375 -7.9375 C -1.097656 -9.820312 -1.195312 -11.4375 -0.90625 -12.78125 C -0.625 -14.132812 -0.0507812 -15.21875 0.8125 -16.03125 C 1.675781 -16.84375 2.726562 -17.410156 3.96875 -17.734375 Z M 4.125 -17.140625 C 3.007812 -16.847656 2.242188 -16.03125 1.828125 -14.6875 C 1.410156 -13.34375 1.550781 -11.347656 2.25 -8.703125 C 2.945312 -6.066406 3.804688 -4.269531 4.828125 -3.3125 C 5.847656 -2.351562 6.914062 -2.019531 8.03125 -2.3125 C 9.15625 -2.613281 9.925781 -3.429688 10.34375 -4.765625 C 10.757812 -6.097656 10.617188 -8.082031 9.921875 -10.71875 C 9.222656 -13.363281 8.363281 -15.171875 7.34375 -16.140625 C 6.320312 -17.109375 5.25 -17.441406 4.125 -17.140625 Z M 4.125 -17.140625 "/></g></g><g style="fill:#3f3f44;fill-opacity:1;"><g transform="translate(234.329881, 309.098536)"><path style="stroke:none" d="M 3.171875 -25.109375 C 3.722656 -25.222656 4.226562 -25.253906 4.6875 -25.203125 C 5.15625 -25.148438 5.570312 -25.039062 5.9375 -24.875 C 6.28125 -24.695312 6.5625 -24.460938 6.78125 -24.171875 C 7.007812 -23.890625 7.160156 -23.566406 7.234375 -23.203125 C 7.335938 -22.753906 7.273438 -22.347656 7.046875 -21.984375 C 6.816406 -21.617188 6.472656 -21.390625 6.015625 -21.296875 C 5.578125 -21.191406 5.160156 -21.25 4.765625 -21.46875 C 4.378906 -21.695312 4.132812 -22.054688 4.03125 -22.546875 C 3.9375 -22.960938 3.972656 -23.320312 4.140625 -23.625 C 4.316406 -23.9375 4.585938 -24.175781 4.953125 -24.34375 C 4.847656 -24.507812 4.660156 -24.628906 4.390625 -24.703125 C 4.117188 -24.785156 3.773438 -24.78125 3.359375 -24.6875 C 2.898438 -24.582031 2.523438 -24.394531 2.234375 -24.125 C 1.953125 -23.863281 1.753906 -23.539062 1.640625 -23.15625 C 1.503906 -22.6875 1.492188 -22.03125 1.609375 -21.1875 C 1.722656 -20.351562 1.96875 -19.082031 2.34375 -17.375 L 2.515625 -16.59375 L 5.703125 -17.296875 L 5.828125 -16.703125 L 2.640625 -16 L 5.171875 -4.328125 C 5.390625 -3.359375 5.816406 -2.769531 6.453125 -2.5625 C 7.085938 -2.363281 7.894531 -2.367188 8.875 -2.578125 L 9.015625 -1.953125 C 8.554688 -1.878906 7.898438 -1.765625 7.046875 -1.609375 C 6.203125 -1.460938 5.3125 -1.285156 4.375 -1.078125 C 3.707031 -0.929688 3.046875 -0.769531 2.390625 -0.59375 C 1.734375 -0.425781 1.238281 -0.296875 0.90625 -0.203125 L 0.765625 -0.828125 C 1.578125 -1.003906 2.125 -1.28125 2.40625 -1.65625 C 2.6875 -2.03125 2.734375 -2.632812 2.546875 -3.46875 L -0.046875 -15.421875 L -2.421875 -14.90625 L -2.546875 -15.5 L -0.171875 -16.015625 C -0.429688 -17.179688 -0.59375 -18.171875 -0.65625 -18.984375 C -0.726562 -19.804688 -0.71875 -20.523438 -0.625 -21.140625 C -0.53125 -21.753906 -0.34375 -22.320312 -0.0625 -22.84375 C 0.238281 -23.394531 0.664062 -23.867188 1.21875 -24.265625 C 1.78125 -24.660156 2.429688 -24.941406 3.171875 -25.109375 Z M 3.171875 -25.109375 "/></g></g><g style="fill:#3f3f44;fill-opacity:1;"><g transform="translate(246.066805, 306.664816)"><path style="stroke:none" d="M 1.84375 -18.09375 C 3.050781 -18.570312 4.238281 -18.734375 5.40625 -18.578125 C 6.582031 -18.429688 7.679688 -17.90625 8.703125 -17 C 9.734375 -16.09375 10.601562 -14.734375 11.3125 -12.921875 C 12.039062 -11.097656 12.335938 -9.507812 12.203125 -8.15625 C 12.078125 -6.800781 11.632812 -5.671875 10.875 -4.765625 C 10.125 -3.859375 9.144531 -3.164062 7.9375 -2.6875 C 6.738281 -2.207031 5.546875 -2.039062 4.359375 -2.1875 C 3.179688 -2.332031 2.082031 -2.851562 1.0625 -3.75 C 0.0507812 -4.644531 -0.816406 -6.003906 -1.546875 -7.828125 C -2.253906 -9.640625 -2.546875 -11.226562 -2.421875 -12.59375 C -2.304688 -13.957031 -1.863281 -15.09375 -1.09375 -16 C -0.332031 -16.914062 0.644531 -17.613281 1.84375 -18.09375 Z M 2.078125 -17.515625 C 0.992188 -17.085938 0.320312 -16.175781 0.0625 -14.78125 C -0.1875 -13.394531 0.1875 -11.4375 1.1875 -8.90625 C 2.195312 -6.363281 3.265625 -4.675781 4.390625 -3.84375 C 5.523438 -3.019531 6.632812 -2.820312 7.71875 -3.25 C 8.789062 -3.675781 9.453125 -4.578125 9.703125 -5.953125 C 9.960938 -7.328125 9.585938 -9.285156 8.578125 -11.828125 C 7.578125 -14.359375 6.507812 -16.046875 5.375 -16.890625 C 4.25 -17.734375 3.148438 -17.941406 2.078125 -17.515625 Z M 2.078125 -17.515625 "/></g></g><g style="fill:#3f3f44;fill-opacity:1;"><g transform="translate(263.413186, 299.449512)"><path style="stroke:none" d="M 0.234375 -19.1875 C 0.703125 -19.476562 1.164062 -19.640625 1.625 -19.671875 C 2.09375 -19.703125 2.519531 -19.628906 2.90625 -19.453125 C 3.289062 -19.273438 3.601562 -19 3.84375 -18.625 C 4.113281 -18.1875 4.21875 -17.722656 4.15625 -17.234375 C 4.101562 -16.742188 3.851562 -16.359375 3.40625 -16.078125 C 3.039062 -15.847656 2.644531 -15.765625 2.21875 -15.828125 C 1.789062 -15.890625 1.445312 -16.128906 1.1875 -16.546875 C 0.976562 -16.878906 0.890625 -17.21875 0.921875 -17.5625 C 0.960938 -17.90625 1.050781 -18.21875 1.1875 -18.5 C 0.96875 -18.59375 0.734375 -18.5625 0.484375 -18.40625 C -0.0351562 -18.070312 -0.421875 -17.601562 -0.671875 -17 C -0.929688 -16.40625 -1.054688 -15.757812 -1.046875 -15.0625 C -1.046875 -14.375 -0.957031 -13.695312 -0.78125 -13.03125 C -0.601562 -12.363281 -0.363281 -11.785156 -0.0625 -11.296875 L 3.375 -5.8125 C 3.90625 -4.96875 4.503906 -4.554688 5.171875 -4.578125 C 5.835938 -4.609375 6.59375 -4.890625 7.4375 -5.421875 L 7.78125 -4.875 C 7.375 -4.644531 6.800781 -4.316406 6.0625 -3.890625 C 5.320312 -3.460938 4.546875 -2.992188 3.734375 -2.484375 C 3.148438 -2.117188 2.578125 -1.742188 2.015625 -1.359375 C 1.453125 -0.972656 1.03125 -0.675781 0.75 -0.46875 L 0.40625 -1.015625 C 1.113281 -1.460938 1.535156 -1.910156 1.671875 -2.359375 C 1.816406 -2.804688 1.660156 -3.390625 1.203125 -4.109375 L -3.859375 -12.203125 C -4.347656 -12.984375 -4.84375 -13.472656 -5.34375 -13.671875 C -5.851562 -13.867188 -6.488281 -13.726562 -7.25 -13.25 L -7.59375 -13.78125 C -7.007812 -14.070312 -6.457031 -14.382812 -5.9375 -14.71875 C -5.445312 -15.019531 -4.988281 -15.34375 -4.5625 -15.6875 C -4.144531 -16.039062 -3.78125 -16.394531 -3.46875 -16.75 L -1.453125 -13.515625 C -1.578125 -14.140625 -1.625 -14.816406 -1.59375 -15.546875 C -1.5625 -16.273438 -1.398438 -16.96875 -1.109375 -17.625 C -0.816406 -18.28125 -0.367188 -18.800781 0.234375 -19.1875 Z M 0.234375 -19.1875 "/></g></g><g style="fill:#3f3f44;fill-opacity:1;"><g transform="translate(276.558935, 291.102726)"><path style="stroke:none" d="M -4.671875 -17.53125 C -3.347656 -18.738281 -1.945312 -19.273438 -0.46875 -19.140625 C 1.007812 -19.003906 2.523438 -18.082031 4.078125 -16.375 L -3.90625 -9.15625 L -4.34375 -9.578125 L 1.5 -14.859375 C 0.863281 -15.617188 0.191406 -16.242188 -0.515625 -16.734375 C -1.234375 -17.222656 -1.925781 -17.507812 -2.59375 -17.59375 C -3.257812 -17.6875 -3.851562 -17.5 -4.375 -17.03125 C -5.0625 -16.40625 -5.359375 -15.5 -5.265625 -14.3125 C -5.171875 -13.132812 -4.503906 -11.742188 -3.265625 -10.140625 L -3.09375 -10.125 C -2.925781 -9.863281 -2.726562 -9.585938 -2.5 -9.296875 C -2.269531 -9.015625 -2.03125 -8.738281 -1.78125 -8.46875 C -0.851562 -7.445312 0.109375 -6.710938 1.109375 -6.265625 C 2.117188 -5.828125 3.0625 -5.660156 3.9375 -5.765625 C 4.820312 -5.867188 5.550781 -6.179688 6.125 -6.703125 C 6.570312 -7.109375 6.929688 -7.566406 7.203125 -8.078125 C 7.484375 -8.585938 7.648438 -9.164062 7.703125 -9.8125 C 7.753906 -10.457031 7.65625 -11.171875 7.40625 -11.953125 L 8.015625 -12.1875 C 8.304688 -11.539062 8.472656 -10.8125 8.515625 -10 C 8.554688 -9.195312 8.421875 -8.390625 8.109375 -7.578125 C 7.804688 -6.765625 7.28125 -6.019531 6.53125 -5.34375 C 5.4375 -4.351562 4.273438 -3.753906 3.046875 -3.546875 C 1.828125 -3.347656 0.613281 -3.5 -0.59375 -4 C -1.800781 -4.507812 -2.925781 -5.335938 -3.96875 -6.484375 C -5.164062 -7.804688 -5.984375 -9.132812 -6.421875 -10.46875 C -6.867188 -11.8125 -6.945312 -13.09375 -6.65625 -14.3125 C -6.363281 -15.53125 -5.703125 -16.601562 -4.671875 -17.53125 Z M -4.671875 -17.53125 "/></g></g><g style="fill:#3f3f44;fill-opacity:1;"><g transform="translate(289.407255, 279.193057)"><path style="stroke:none" d="M -3.5 -21.3125 L -3.015625 -20.953125 C -3.210938 -20.617188 -3.285156 -20.234375 -3.234375 -19.796875 C -3.191406 -19.359375 -2.953125 -18.785156 -2.515625 -18.078125 L 4.890625 -6.140625 C 4.835938 -6.078125 4.785156 -6.007812 4.734375 -5.9375 C 4.679688 -5.875 4.628906 -5.804688 4.578125 -5.734375 L -9.59375 -9.46875 C -10.425781 -9.6875 -11.003906 -9.722656 -11.328125 -9.578125 C -11.648438 -9.441406 -11.878906 -9.285156 -12.015625 -9.109375 L -12.53125 -9.484375 C -12.269531 -9.796875 -11.992188 -10.117188 -11.703125 -10.453125 C -11.410156 -10.785156 -11.109375 -11.15625 -10.796875 -11.5625 C -10.410156 -12.0625 -10.015625 -12.59375 -9.609375 -13.15625 C -9.203125 -13.726562 -8.832031 -14.265625 -8.5 -14.765625 L -7.984375 -14.390625 C -8.296875 -13.984375 -8.539062 -13.597656 -8.71875 -13.234375 C -8.90625 -12.878906 -8.90625 -12.554688 -8.71875 -12.265625 C -8.53125 -11.984375 -8.019531 -11.722656 -7.1875 -11.484375 L 2.609375 -8.796875 L 2.625 -8.5625 L -2.515625 -16.859375 C -2.898438 -17.484375 -3.265625 -17.894531 -3.609375 -18.09375 C -3.953125 -18.289062 -4.3125 -18.304688 -4.6875 -18.140625 C -5.0625 -17.984375 -5.488281 -17.628906 -5.96875 -17.078125 L -6.453125 -17.4375 C -6.210938 -17.71875 -6.003906 -17.960938 -5.828125 -18.171875 C -5.660156 -18.378906 -5.5 -18.578125 -5.34375 -18.765625 C -5.1875 -18.960938 -5.015625 -19.1875 -4.828125 -19.4375 C -4.546875 -19.800781 -4.296875 -20.140625 -4.078125 -20.453125 C -3.867188 -20.765625 -3.675781 -21.050781 -3.5 -21.3125 Z M -3.5 -21.3125 "/></g></g><g style="fill:#3f3f44;fill-opacity:1;"><g transform="translate(299.591134, 265.575526)"><path style="stroke:none" d="M -10.65625 -14.6875 C -9.851562 -16.28125 -8.738281 -17.28125 -7.3125 -17.6875 C -5.882812 -18.09375 -4.144531 -17.773438 -2.09375 -16.734375 L -6.953125 -7.140625 L -7.484375 -7.375 L -3.9375 -14.40625 C -4.800781 -14.882812 -5.65625 -15.222656 -6.5 -15.421875 C -7.34375 -15.617188 -8.09375 -15.640625 -8.75 -15.484375 C -9.40625 -15.328125 -9.890625 -14.941406 -10.203125 -14.328125 C -10.617188 -13.492188 -10.570312 -12.539062 -10.0625 -11.46875 C -9.550781 -10.394531 -8.421875 -9.335938 -6.671875 -8.296875 L -6.515625 -8.328125 C -6.265625 -8.160156 -5.984375 -7.984375 -5.671875 -7.796875 C -5.359375 -7.609375 -5.035156 -7.429688 -4.703125 -7.265625 C -3.472656 -6.640625 -2.304688 -6.300781 -1.203125 -6.25 C -0.109375 -6.207031 0.828125 -6.390625 1.609375 -6.796875 C 2.398438 -7.210938 2.96875 -7.765625 3.3125 -8.453125 C 3.59375 -8.992188 3.769531 -9.550781 3.84375 -10.125 C 3.914062 -10.707031 3.859375 -11.304688 3.671875 -11.921875 C 3.484375 -12.535156 3.132812 -13.171875 2.625 -13.828125 L 3.109375 -14.265625 C 3.609375 -13.765625 4.019531 -13.140625 4.34375 -12.390625 C 4.675781 -11.648438 4.847656 -10.847656 4.859375 -9.984375 C 4.867188 -9.117188 4.640625 -8.234375 4.171875 -7.328125 C 3.515625 -6.015625 2.648438 -5.039062 1.578125 -4.40625 C 0.503906 -3.78125 -0.679688 -3.484375 -1.984375 -3.515625 C -3.296875 -3.554688 -4.644531 -3.925781 -6.03125 -4.625 C -7.625 -5.425781 -8.867188 -6.375 -9.765625 -7.46875 C -10.660156 -8.5625 -11.1875 -9.726562 -11.34375 -10.96875 C -11.507812 -12.207031 -11.28125 -13.445312 -10.65625 -14.6875 Z M -10.65625 -14.6875 "/></g></g><g style="fill:#3f3f44;fill-opacity:1;"><g transform="translate(307.22703, 249.918275)"><path style="stroke:none" d="M -12.453125 -14.59375 C -12.296875 -15.113281 -12.050781 -15.539062 -11.71875 -15.875 C -11.382812 -16.21875 -11.015625 -16.445312 -10.609375 -16.5625 C -10.203125 -16.6875 -9.785156 -16.6875 -9.359375 -16.5625 C -8.867188 -16.414062 -8.484375 -16.132812 -8.203125 -15.71875 C -7.929688 -15.300781 -7.867188 -14.835938 -8.015625 -14.328125 C -8.140625 -13.921875 -8.378906 -13.601562 -8.734375 -13.375 C -9.097656 -13.144531 -9.515625 -13.097656 -9.984375 -13.234375 C -10.359375 -13.347656 -10.644531 -13.546875 -10.84375 -13.828125 C -11.050781 -14.117188 -11.195312 -14.410156 -11.28125 -14.703125 C -11.507812 -14.640625 -11.664062 -14.46875 -11.75 -14.1875 C -11.925781 -13.59375 -11.910156 -12.984375 -11.703125 -12.359375 C -11.503906 -11.742188 -11.175781 -11.175781 -10.71875 -10.65625 C -10.257812 -10.132812 -9.738281 -9.679688 -9.15625 -9.296875 C -8.582031 -8.910156 -8.023438 -8.640625 -7.484375 -8.484375 L -1.28125 -6.609375 C -0.332031 -6.316406 0.382812 -6.398438 0.875 -6.859375 C 1.363281 -7.316406 1.753906 -8.023438 2.046875 -8.984375 L 2.65625 -8.796875 C 2.5 -8.359375 2.28125 -7.734375 2 -6.921875 C 1.71875 -6.109375 1.441406 -5.242188 1.171875 -4.328125 C 0.972656 -3.671875 0.789062 -3.007812 0.625 -2.34375 C 0.457031 -1.6875 0.332031 -1.191406 0.25 -0.859375 L -0.359375 -1.046875 C -0.109375 -1.835938 -0.0820312 -2.445312 -0.28125 -2.875 C -0.476562 -3.300781 -0.984375 -3.640625 -1.796875 -3.890625 L -10.9375 -6.640625 C -11.8125 -6.898438 -12.503906 -6.941406 -13.015625 -6.765625 C -13.535156 -6.585938 -13.925781 -6.070312 -14.1875 -5.21875 L -14.796875 -5.390625 C -14.546875 -5.992188 -14.332031 -6.585938 -14.15625 -7.171875 C -13.976562 -7.734375 -13.847656 -8.285156 -13.765625 -8.828125 C -13.679688 -9.367188 -13.640625 -9.875 -13.640625 -10.34375 L -10 -9.234375 C -10.5 -9.617188 -10.972656 -10.09375 -11.421875 -10.65625 C -11.878906 -11.226562 -12.21875 -11.859375 -12.4375 -12.546875 C -12.65625 -13.234375 -12.660156 -13.914062 -12.453125 -14.59375 Z M -12.453125 -14.59375 "/></g></g></g></svg>